<svg width="24" height="24" viewBox="0 0 24 24" fill="none" xmlns="http://www.w3.org/2000/svg">
    <g clip-path="url(#clip0_6008_42554)">
        <path
            d="M12 24C18.6274 24 24 18.6274 24 12C24 5.37258 18.6274 0 12 0C5.37258 0 0 5.37258 0 12C0 18.6274 5.37258 24 12 24Z"
            fill="#F0F0F0" />
        <path
            d="M12.0007 0C7.24316 0 3.13241 2.76867 1.19141 6.78263H22.8099C20.869 2.76867 16.7582 0 12.0007 0Z"
            fill="#338AF3" />
        <path
            d="M12.0007 24.0004C16.7582 24.0004 20.869 21.2317 22.81 17.2178H1.19141C3.13241 21.2317 7.24316 24.0004 12.0007 24.0004Z"
            fill="#338AF3" />
        <path
            d="M15.5873 11.9998L14.1218 12.6892L14.9022 14.1085L13.3108 13.804L13.1092 15.4117L12.0007 14.2293L10.8922 15.4117L10.6906 13.804L9.09919 14.1085L9.87956 12.6891L8.41406 11.9998L9.87961 11.3104L9.09919 9.89111L10.6905 10.1955L10.8922 8.58789L12.0007 9.77027L13.1092 8.58789L13.3108 10.1955L14.9023 9.89111L14.1218 11.3104L15.5873 11.9998Z"
            fill="#FFDA44" />
    </g>
    <defs>
        <clipPath id="clip0_6008_42554">
            <rect width="24" height="24" fill="white" />
        </clipPath>
    </defs>
</svg>