<svg width="50" height="39" viewBox="0 0 50 39" fill="none" xmlns="http://www.w3.org/2000/svg">
<path d="M49.5328 38.6679H0V3.07975H3.45321C3.45321 2.22804 3.48219 1.44005 3.44308 0.654969C3.41991 0.176964 3.56765 0.0205265 4.05144 0.00893854C9.12119 -0.118529 13.8462 1.11994 18.2714 3.55631C20.5383 4.80491 22.5632 6.37653 24.3681 8.23206C24.4883 8.35518 24.5738 8.51452 24.7809 8.80422C24.9605 8.529 25.0358 8.36242 25.1561 8.24075C29.9433 3.39987 35.7649 0.749121 42.5163 0.101642C43.5288 0.00459295 44.5558 0.0509449 45.5755 0.0176294C45.955 0.00459297 46.1028 0.134958 46.0883 0.536192C46.0593 1.35894 46.0796 2.18313 46.0796 3.05078H49.5357V38.6679H49.5328ZM25.6457 35.7651C31.2108 31.521 37.5509 29.9552 44.2661 29.5931V1.72831C43.2956 1.82101 42.3642 1.8746 41.4459 2.00497C35.394 2.86103 30.2229 5.4437 26.0092 9.89928C25.7485 10.1745 25.6384 10.4512 25.6384 10.835C25.6486 18.9365 25.6457 27.0365 25.6457 35.1379V35.7666V35.7651ZM5.26239 1.68195V29.5974C12.0196 29.9523 18.3452 31.5413 23.8857 35.7579C23.8857 35.5276 23.8857 35.4088 23.8857 35.2886C23.8857 27.1002 23.8901 18.9118 23.8698 10.7235C23.8698 10.4483 23.7003 10.1166 23.5062 9.90797C19.6735 5.7812 14.9384 3.28399 9.43262 2.23238C8.07537 1.9731 6.68772 1.86591 5.26239 1.68051V1.68195ZM47.7642 36.8833V4.88169H46.0782C46.0782 5.14241 46.0782 5.36838 46.0782 5.5929C46.0782 13.9725 46.0738 22.352 46.0883 30.7316C46.0883 31.2009 45.9739 31.337 45.4843 31.3718C43.4332 31.5167 41.3676 31.6123 39.3397 31.9309C35.155 32.5871 31.2398 34.0081 27.7387 36.4531C27.5765 36.5676 27.4215 36.6921 27.1709 36.8833H47.7642ZM22.3286 36.8776C22.1026 36.7008 21.9679 36.5676 21.81 36.4763C20.5788 35.7608 19.3852 34.967 18.1033 34.3586C13.684 32.2655 8.97779 31.4312 4.11808 31.3689C3.60096 31.3617 3.44018 31.2443 3.44163 30.6954C3.46191 22.3129 3.45466 13.9305 3.45466 5.54799C3.45466 5.32782 3.45466 5.1062 3.45466 4.88748H1.77006V36.8776H22.3286Z" fill="white"/>
<path d="M8.39987 6.47505C7.71183 6.45042 7.2599 6.79661 7.25266 7.35429C7.24686 7.88878 7.65823 8.14517 8.32599 8.26684C9.63398 8.50729 10.9623 8.7347 12.2167 9.15767C15.2744 10.189 17.9991 11.8664 20.6078 13.7393C21.1206 14.1072 21.6536 14.0536 21.9622 13.6335C22.275 13.2062 22.1635 12.6848 21.6551 12.3154C19.3578 10.6482 16.946 9.1736 14.3315 8.05681C12.4325 7.24565 10.4799 6.61555 8.39842 6.4765L8.39987 6.47505ZM8.57079 11.4246C7.70459 11.3985 7.25845 11.7244 7.25266 12.2937C7.24831 12.8412 7.66692 13.0845 8.37813 13.2164C9.70351 13.4612 11.0448 13.7016 12.3152 14.1347C15.3353 15.1631 18.028 16.8289 20.6093 18.6801C21.1293 19.0538 21.6493 18.9988 21.9622 18.5729C22.275 18.1441 22.1649 17.6227 21.6565 17.2533C19.2288 15.4934 16.6766 13.9493 13.894 12.8122C12.1457 12.0981 10.351 11.5535 8.57079 11.4246ZM8.57369 16.3668C8.45781 16.3668 8.40421 16.3668 8.35206 16.3668C7.67851 16.361 7.26135 16.6884 7.25411 17.2301C7.24687 17.7487 7.62782 18.0992 8.2724 18.1355C9.9092 18.2267 11.4504 18.7047 12.9597 19.2971C15.7104 20.3777 18.2134 21.9015 20.6064 23.6166C21.1365 23.9975 21.6319 23.9483 21.9564 23.5166C22.275 23.0922 22.1678 22.5664 21.6594 22.1985C19.3201 20.4994 16.8605 19.0017 14.191 17.8762C12.3702 17.1085 10.4987 16.5131 8.57369 16.3668ZM8.53023 21.3164C8.47809 21.3135 8.42449 21.3091 8.37234 21.3077C7.70169 21.2888 7.27583 21.6104 7.25266 22.1507C7.22948 22.6823 7.63217 22.9546 8.30427 23.0792C9.59488 23.3196 10.9058 23.5398 12.1457 23.9526C15.2252 24.9796 17.9643 26.6657 20.5904 28.5444C21.1365 28.9355 21.6623 28.8833 21.9766 28.4299C22.2765 27.9968 22.1534 27.4942 21.6333 27.1176C19.5374 25.5967 17.3429 24.2365 14.9818 23.1632C12.925 22.2275 10.8087 21.4829 8.53023 21.3149V21.3164Z" fill="white"/>
<path d="M42.2788 7.38759C42.2672 7.82069 41.9384 8.20744 41.4879 8.23641C38.013 8.46672 34.9943 9.95433 32.0683 11.6737C30.9631 12.3226 29.939 13.1063 28.8425 13.7726C28.5861 13.929 28.1458 13.9652 27.872 13.8537C27.6504 13.7639 27.4549 13.3786 27.4273 13.1077C27.4056 12.8817 27.5838 12.5442 27.7793 12.4023C31.1847 9.9268 34.7828 7.81779 38.9241 6.81543C39.6889 6.63002 40.4841 6.54746 41.2706 6.48517C41.8732 6.43737 42.2933 6.86323 42.2788 7.38904V7.38759Z" fill="white"/>
<path d="M42.2802 12.3053C42.2802 12.7528 41.9384 13.1541 41.4589 13.1859C37.9637 13.4163 34.9363 14.9256 31.9973 16.658C30.924 17.291 29.9115 18.0297 28.87 18.7178C28.3877 19.0364 27.9068 18.993 27.5954 18.6106C27.2781 18.2195 27.3187 17.6661 27.7561 17.3518C31.4208 14.717 35.268 12.4501 39.7801 11.5839C40.2958 11.4854 40.8274 11.4419 41.3517 11.4304C41.892 11.4188 42.2788 11.8171 42.2788 12.3067L42.2802 12.3053Z" fill="white"/>
<path d="M42.2803 17.2533C42.2759 17.6835 41.9616 18.0746 41.501 18.1123C37.1874 18.4599 33.5849 20.5269 30.0752 22.8184C29.6334 23.1067 29.2177 23.4355 28.7745 23.7194C28.3312 24.0018 27.846 23.9005 27.5592 23.5007C27.2811 23.111 27.339 22.5925 27.7634 22.2854C31.2616 19.7534 34.9509 17.5966 39.2182 16.629C39.9163 16.4711 40.6435 16.419 41.3605 16.3784C41.8979 16.348 42.2846 16.7623 42.2803 17.2533Z" fill="white"/>
<path d="M42.2803 22.1927C42.2774 22.6258 41.9515 23.0169 41.5024 23.0502C37.7711 23.3269 34.5627 24.9781 31.4484 26.8684C30.5924 27.3884 29.7812 27.9794 28.9512 28.5414C28.3877 28.9238 27.8808 28.8905 27.5592 28.4415C27.242 27.9983 27.3738 27.4913 27.9271 27.0958C31.192 24.7623 34.6221 22.7431 38.5504 21.7335C39.4456 21.5032 40.3813 21.4076 41.3054 21.3178C41.879 21.2627 42.2832 21.6828 42.2788 22.1912L42.2803 22.1927Z" fill="white"/>
<path d="M8.39976 6.47648C10.4812 6.61554 12.4338 7.24418 14.3328 8.05534C16.9473 9.17358 19.3591 10.6467 21.6564 12.3139C22.1648 12.6833 22.2778 13.2048 21.9635 13.6321C21.655 14.0536 21.1219 14.1057 20.6091 13.7378C17.9989 11.8663 15.2743 10.1875 12.218 9.1562C10.9621 8.73324 9.63533 8.50583 8.32733 8.26537C7.65958 8.14225 7.24676 7.88732 7.254 7.35282C7.26124 6.79515 7.71317 6.44896 8.40121 6.47358L8.39976 6.47648Z" fill="white"/>
<path d="M8.57209 11.426C10.3523 11.5535 12.147 12.0981 13.8953 12.8137C16.6779 13.9507 19.2301 15.4963 21.6578 17.2547C22.1662 17.6241 22.2778 18.1456 21.9635 18.5743C21.652 19.0016 21.1306 19.0552 20.6106 18.6815C18.0293 16.8303 15.338 15.1646 12.3165 14.1361C11.0461 13.703 9.70337 13.4626 8.37944 13.2178C7.66823 13.0874 7.24817 12.8426 7.25397 12.2951C7.25976 11.7244 7.70589 11.3985 8.57209 11.426Z" fill="white"/>
<path d="M8.5751 16.3683C10.5002 16.5146 12.3716 17.1099 14.1924 17.8776C16.8634 19.0031 19.3215 20.5008 21.6608 22.1999C22.1693 22.5693 22.2764 23.0951 21.9578 23.5181C21.6333 23.9497 21.1379 23.999 20.6078 23.618C18.2134 21.903 15.7118 20.3792 12.9612 19.2986C11.4504 18.7061 9.91062 18.2281 8.27381 18.1369C7.62923 18.1007 7.24683 17.7501 7.25552 17.2316C7.26421 16.6898 7.68138 16.3625 8.35348 16.3683C8.40563 16.3683 8.45922 16.3683 8.5751 16.3683Z" fill="white"/>
<path d="M8.53169 21.3178C10.8102 21.4844 12.9264 22.2303 14.9833 23.1661C17.3444 24.2394 19.5388 25.5995 21.6348 27.1205C22.1548 27.4971 22.2779 27.9997 21.9781 28.4328C21.6638 28.8862 21.138 28.9383 20.5919 28.5472C17.9658 26.6685 15.2267 24.981 12.1471 23.9555C10.9072 23.5412 9.59634 23.3225 8.30573 23.082C7.63362 22.9575 7.23095 22.6866 7.25412 22.1536C7.2773 21.6133 7.70315 21.2917 8.37381 21.3105C8.42595 21.312 8.47954 21.3163 8.53169 21.3192V21.3178Z" fill="white"/>
</svg>
