<svg width="41" height="41" viewBox="0 0 41 41" fill="none" xmlns="http://www.w3.org/2000/svg">
<circle cx="20.5" cy="20.5" r="20.5" fill="white"/>
<path d="M9.32994 35C9.07254 34.8512 9 34.6207 9 34.3349C9.00312 26.5571 9.00312 18.78 9 11.0022C9 10.76 9.07254 10.5723 9.24726 10.3986C10.6419 9.01549 12.0296 7.62457 13.4211 6.23753C13.5069 6.15186 13.606 6.07944 13.6988 6.00078C18.7104 6.00078 23.7211 6.00078 28.7327 6.00078C28.9917 6.15031 29.0588 6.38472 29.0588 6.66821C29.0556 15.8891 29.0556 25.1109 29.0588 34.3318C29.0588 34.6153 28.9917 34.8497 28.7327 34.9992H9.32994V35ZM14.3197 6.95558V7.27644C14.3197 8.39012 14.3197 9.5038 14.3197 10.6175C14.3197 11.1587 14.1746 11.3044 13.6286 11.3052C12.5132 11.3067 11.3978 11.3052 10.2823 11.3052C10.1809 11.3052 10.0803 11.3052 9.96487 11.3052V34.0452H28.0876V6.95558H14.3197ZM13.3634 7.70167C12.4718 8.59183 11.5896 9.47343 10.7145 10.3465H13.3642V7.70245L13.3634 7.70167Z" fill="#0793BF"/>
<path d="M30.3209 35C30.1259 34.8699 29.9263 34.7157 30.0152 34.4595C30.0659 34.3147 30.2273 34.2017 30.3545 34.0927C30.4044 34.0506 30.498 34.0592 30.59 34.0413V6.95792C30.3295 6.92287 30.0635 6.87147 30.0035 6.54438C29.9543 6.27414 30.1259 6.13006 30.3209 6H31.2289C31.4863 6.14875 31.5596 6.38005 31.5588 6.66587C31.5557 15.8884 31.5557 25.1116 31.5588 34.3341C31.5588 34.6199 31.4863 34.8505 31.2289 35H30.3209Z" fill="#0793BF"/>
<path d="M13.0803 25.6498V29.6715H17.3165C17.3165 29.5562 17.3165 29.455 17.3165 29.3537C17.3165 28.5991 17.3126 27.8436 17.3204 27.089C17.3235 26.7837 17.5185 26.5874 17.783 26.5882C18.0458 26.589 18.2401 26.7892 18.2424 27.0937C18.2479 28.103 18.2486 29.1131 18.2424 30.1224C18.2401 30.4495 18.0607 30.6333 17.7291 30.6348C16.0373 30.6403 14.3455 30.6403 12.6536 30.6348C12.3338 30.6341 12.17 30.4658 12.1326 30.152C12.1263 30.0959 12.1279 30.0391 12.1279 29.9822C12.1279 28.4441 12.1263 26.906 12.1279 25.3678C12.1279 24.8694 12.2925 24.7067 12.7917 24.7059C14.3891 24.7043 15.9858 24.7043 17.5833 24.7067C17.6956 24.7067 17.8399 24.6919 17.9125 24.7518C18.0443 24.8624 18.2135 25.0213 18.2174 25.1646C18.2221 25.3087 18.0685 25.487 17.9374 25.5945C17.8524 25.6646 17.6855 25.6482 17.5544 25.6482C16.1746 25.6513 14.7947 25.6506 13.4149 25.6506H13.0795L13.0803 25.6498Z" fill="#0793BF"/>
<path d="M19.0287 14.7287C21.0895 14.7287 23.1503 14.7287 25.211 14.7303C25.3327 14.7303 25.4583 14.735 25.5753 14.7622C25.8101 14.8175 25.9232 14.9857 25.9146 15.2194C25.9068 15.4406 25.789 15.5924 25.5652 15.6399C25.4645 15.661 25.3592 15.6703 25.2563 15.6703C21.1058 15.6719 16.9562 15.6719 12.8058 15.6703C12.6934 15.6703 12.578 15.6617 12.4696 15.6337C12.248 15.5769 12.1108 15.4016 12.1521 15.1976C12.1841 15.0403 12.3253 14.8806 12.4602 14.7786C12.5491 14.7108 12.7137 14.7311 12.8448 14.7303C14.9055 14.728 16.9663 14.7287 19.0271 14.7287H19.0287Z" fill="#0793BF"/>
<path d="M19.0316 22.2106C21.0924 22.2106 23.1532 22.2106 25.2147 22.2106C25.6929 22.2106 25.916 22.3594 25.9191 22.6779C25.9222 22.9988 25.6976 23.1545 25.2249 23.1545C21.0932 23.1545 16.9622 23.1545 12.8305 23.1545C12.3633 23.1545 12.1308 22.9925 12.1378 22.674C12.1441 22.3656 12.3695 22.2106 12.8204 22.2106C14.8905 22.2106 16.9614 22.2106 19.0316 22.2106Z" fill="#0793BF"/>
<path d="M20.6066 10.3636C22.1565 10.3636 23.7064 10.3628 25.2562 10.3651C25.3771 10.3651 25.5051 10.3714 25.6182 10.4087C25.8327 10.4788 25.9286 10.6478 25.913 10.8698C25.8982 11.0801 25.7851 11.2234 25.5768 11.2716C25.4676 11.2966 25.3522 11.3044 25.2399 11.3051C22.1401 11.3067 19.0403 11.3067 15.9406 11.3051C15.8376 11.3051 15.7331 11.2973 15.6317 11.2779C15.393 11.2335 15.2713 11.0723 15.2674 10.841C15.2635 10.6081 15.3868 10.4446 15.6192 10.3901C15.7276 10.3644 15.8439 10.3651 15.9562 10.3651C17.5061 10.3636 19.0559 10.3644 20.6058 10.3644L20.6066 10.3636Z" fill="#0793BF"/>
<path d="M22.8599 17.2217C23.6625 17.2217 24.4652 17.2193 25.2678 17.224C25.3887 17.224 25.547 17.2115 25.6219 17.2785C25.7483 17.3922 25.8934 17.5636 25.8965 17.7131C25.8988 17.8478 25.742 18.0121 25.6149 18.1134C25.5338 18.178 25.3801 18.1656 25.2592 18.1656C23.6633 18.1687 22.0674 18.1679 20.4715 18.1656C20.36 18.1656 20.2141 18.1796 20.1431 18.1188C20.0129 18.0075 19.8459 17.8463 19.8428 17.703C19.8397 17.5589 19.9965 17.3868 20.1252 17.2754C20.2016 17.2092 20.3592 17.224 20.4801 17.2232C21.2734 17.2193 22.0666 17.2209 22.8599 17.2209V17.2217Z" fill="#0793BF"/>
<path d="M15.1713 17.2217C15.974 17.2217 16.7766 17.2201 17.5792 17.224C17.7001 17.224 17.8577 17.21 17.9341 17.2762C18.0628 17.3876 18.2204 17.5597 18.2181 17.7037C18.2149 17.847 18.0457 18.0044 17.9178 18.1204C17.8546 18.1772 17.7196 18.1663 17.6174 18.1663C16.0028 18.1687 14.3882 18.1687 12.7736 18.1663C12.662 18.1663 12.5146 18.1772 12.4468 18.1149C12.3196 17.9981 12.1667 17.8346 12.1613 17.685C12.1558 17.5503 12.3126 17.3829 12.4382 17.2793C12.5177 17.2139 12.6722 17.2256 12.7931 17.2248C13.5864 17.2209 14.3796 17.2224 15.1729 17.2224L15.1713 17.2217Z" fill="#0793BF"/>
<path d="M15.2033 19.7169C15.9966 19.7169 16.7898 19.7146 17.5831 19.7185C17.704 19.7185 17.8623 19.7045 17.938 19.7707C18.0659 19.8828 18.2141 20.0526 18.2188 20.2021C18.2227 20.3369 18.0683 20.5066 17.9403 20.604C17.8506 20.6725 17.6876 20.6585 17.5574 20.6585C15.9802 20.6616 14.403 20.6608 12.8266 20.6608C12.7892 20.6608 12.7509 20.6616 12.7135 20.6608C12.3477 20.6491 12.1308 20.4661 12.1402 20.1756C12.1488 19.8961 12.357 19.7208 12.7112 19.7185C13.5419 19.7138 14.3734 19.7169 15.2041 19.7169H15.2033Z" fill="#0793BF"/>
<path d="M22.8896 20.6608C22.0869 20.6608 21.2843 20.6616 20.4817 20.6593C20.3787 20.6593 20.2734 20.6523 20.1736 20.6281C19.9411 20.5728 19.8194 20.4155 19.8233 20.1795C19.8272 19.9435 19.9575 19.7932 20.1892 19.7418C20.2711 19.7239 20.3569 19.7169 20.4411 19.7169C22.0557 19.7154 23.6703 19.7154 25.2857 19.7169C25.3879 19.7169 25.494 19.727 25.5931 19.7535C25.8138 19.8135 25.9183 19.9763 25.916 20.1951C25.9137 20.4023 25.8107 20.5596 25.604 20.6157C25.4878 20.6476 25.3622 20.6561 25.2413 20.6569C24.4574 20.66 23.6735 20.6585 22.8903 20.6585L22.8896 20.6608Z" fill="#0793BF"/>
<path d="M22.8591 25.6498C22.0659 25.6498 21.2726 25.6513 20.4793 25.6475C20.3584 25.6475 20.2008 25.6622 20.1244 25.596C19.9957 25.4847 19.8397 25.3118 19.8428 25.1677C19.8459 25.0244 20.0105 24.8601 20.1431 24.7534C20.2235 24.6888 20.3779 24.7067 20.4996 24.7059C22.0768 24.7035 23.6532 24.7043 25.2304 24.7043C25.3154 24.7043 25.4012 24.702 25.4846 24.7152C25.7615 24.7588 25.923 24.9387 25.9175 25.1872C25.9121 25.4333 25.7405 25.6085 25.4644 25.6436C25.3895 25.6529 25.3138 25.649 25.2382 25.649C24.4449 25.649 23.6516 25.649 22.8583 25.649L22.8591 25.6498Z" fill="#0793BF"/>
<path d="M22.8593 28.1427C22.0566 28.1427 21.254 28.1466 20.4514 28.1396C20.3141 28.138 20.1347 28.1341 20.0504 28.0531C19.9373 27.9441 19.832 27.7533 19.8445 27.6077C19.8562 27.4768 20.0138 27.3343 20.1409 27.2479C20.2298 27.1879 20.378 27.2035 20.4989 27.2027C22.0761 27.2004 23.6525 27.2011 25.2297 27.2011C25.2867 27.2011 25.3436 27.1988 25.3998 27.2027C25.732 27.2268 25.9224 27.4052 25.9169 27.6824C25.9107 27.9589 25.7149 28.138 25.3795 28.1411C24.5394 28.1474 23.6985 28.1435 22.8585 28.1435L22.8593 28.1427Z" fill="#0793BF"/>
<path d="M21.2983 30.6372C20.9871 30.6372 20.6767 30.6419 20.3655 30.6356C20.03 30.6294 19.8327 30.4612 19.8218 30.1863C19.8101 29.8989 20.0059 29.705 20.3553 29.6995C20.9863 29.6886 21.6181 29.6894 22.2492 29.6995C22.601 29.705 22.7991 29.8911 22.7936 30.1769C22.7882 30.462 22.5838 30.6325 22.2312 30.6372C21.92 30.6419 21.6096 30.638 21.2983 30.638V30.6372Z" fill="#0793BF"/>
</svg>
