<svg width="62" height="62" viewBox="0 0 62 62" fill="none" xmlns="http://www.w3.org/2000/svg">
<g clip-path="url(#clip0_3450_184)">
<path d="M31 62C48.1208 62 62 48.1208 62 31C62 13.8792 48.1208 0 31 0C13.8792 0 0 13.8792 0 31C0 48.1208 13.8792 62 31 62Z" fill="#0793BF"/>
<path d="M50.7189 17.816H12.172C10.271 17.816 8.72998 19.3569 8.72998 21.2577C8.72998 23.1584 10.271 24.6993 12.172 24.6993H50.7189C52.6199 24.6993 54.161 23.1584 54.161 21.2577C54.161 19.3569 52.6199 17.816 50.7189 17.816Z" fill="white"/>
<path d="M50.7189 26.7241H12.172C10.271 26.7241 8.72998 28.265 8.72998 30.1657C8.72998 32.0665 10.271 33.6074 12.172 33.6074H50.7189C52.6199 33.6074 54.161 32.0665 54.161 30.1657C54.161 28.265 52.6199 26.7241 50.7189 26.7241Z" fill="white"/>
<path d="M50.7189 35.6322H12.172C10.271 35.6322 8.72998 37.1731 8.72998 39.0738C8.72998 40.9746 10.271 42.5154 12.172 42.5154H50.7189C52.6199 42.5154 54.161 40.9746 54.161 39.0738C54.161 37.1731 52.6199 35.6322 50.7189 35.6322Z" fill="white"/>
</g>
<defs>
<clipPath id="clip0_3450_184">
<rect width="62" height="62" fill="white"/>
</clipPath>
</defs>
</svg>
