<svg width="62" height="62" viewBox="0 0 62 62" fill="none" xmlns="http://www.w3.org/2000/svg">
<g clip-path="url(#clip0_3450_188)">
<path d="M31 62C48.1208 62 62 48.1208 62 31C62 13.8792 48.1208 0 31 0C13.8792 0 0 13.8792 0 31C0 48.1208 13.8792 62 31 62Z" fill="#004369"/>
<path d="M50.7188 17.816H12.1719C10.2709 17.816 8.72986 19.3569 8.72986 21.2577C8.72986 23.1584 10.2709 24.6993 12.1719 24.6993H50.7188C52.6198 24.6993 54.1609 23.1584 54.1609 21.2577C54.1609 19.3569 52.6198 17.816 50.7188 17.816Z" fill="white"/>
<path d="M50.7188 26.7241H12.1719C10.2709 26.7241 8.72986 28.265 8.72986 30.1657C8.72986 32.0665 10.2709 33.6074 12.1719 33.6074H50.7188C52.6198 33.6074 54.1609 32.0665 54.1609 30.1657C54.1609 28.265 52.6198 26.7241 50.7188 26.7241Z" fill="white"/>
<path d="M50.7188 35.6322H12.1719C10.2709 35.6322 8.72986 37.1731 8.72986 39.0738C8.72986 40.9746 10.2709 42.5154 12.1719 42.5154H50.7188C52.6198 42.5154 54.1609 40.9746 54.1609 39.0738C54.1609 37.1731 52.6198 35.6322 50.7188 35.6322Z" fill="white"/>
</g>
<defs>
<clipPath id="clip0_3450_188">
<rect width="62" height="62" fill="white"/>
</clipPath>
</defs>
</svg>
