<svg width="8" height="4" viewBox="0 0 8 4" fill="none" xmlns="http://www.w3.org/2000/svg">
    <path
        d="M1.20506 0H6.79506C6.89394 0.000414616 6.99049 0.0301421 7.07248 0.0854235C7.15447 0.140705 7.21823 0.219058 7.25569 0.310574C7.29315 0.40209 7.30264 0.50266 7.28295 0.599566C7.26325 0.696473 7.21527 0.785364 7.14506 0.855L4.35506 3.645C4.30858 3.69186 4.25328 3.72906 4.19235 3.75445C4.13142 3.77983 4.06606 3.7929 4.00006 3.7929C3.93405 3.7929 3.8687 3.77983 3.80777 3.75445C3.74684 3.72906 3.69154 3.69186 3.64506 3.645L0.855057 0.855C0.784846 0.785364 0.736861 0.696473 0.717168 0.599566C0.697476 0.50266 0.70696 0.40209 0.744423 0.310574C0.781886 0.219058 0.845644 0.140705 0.927636 0.0854235C1.00963 0.0301421 1.10617 0.000414616 1.20506 0Z"
        fill="#151A2D" />
</svg>