<svg width="100%" height="100%" viewBox="0 0 24 24" fill="none" xmlns="http://www.w3.org/2000/svg">
<path d="M12 0C5.373 0 0 5.373 0 12C0 18.627 5.373 24 12 24C18.627 24 24 18.627 24 12C24 5.373 18.627 0 12 0ZM12 2C14.398 2 16.601 2.849 18.325 4.261L12 10.586L5.675 4.261C7.4 2.849 9.603 2 12 2ZM2 12C2 9.602 2.849 7.399 4.261 5.675L10.586 12L4.261 18.325C2.849 16.6 2 14.397 2 12ZM12 22C9.602 22 7.399 21.151 5.675 19.739L12 13.414L18.325 19.739C16.6 21.151 14.397 22 12 22ZM19.739 18.325L13.414 12L19.739 5.675C21.151 7.4 22 9.603 22 12C22 14.397 21.151 16.601 19.739 18.325Z" fill="currentColor"/>
</svg>
