<svg width="22" height="22" viewBox="0 0 22 22" fill="none" xmlns="http://www.w3.org/2000/svg">
<path d="M11.0012 2.19889e-05C17.0416 -0.0120155 21.9932 4.91985 22 10.9642C22.0067 17.0417 17.155 21.9348 11.121 21.9994C5.00281 22.0645 0.0288922 17.1747 0.000115808 11.0728C-0.0274861 4.93189 4.88242 0.0123531 11.0012 2.19889e-05ZM1.46272 11.0059C1.47124 16.2718 5.74982 20.5499 10.9977 20.5369C16.2832 20.5237 20.535 16.2648 20.535 10.9868C20.535 5.72549 16.2479 1.46009 10.9669 1.46684C5.7278 1.47389 1.4545 5.76307 1.46272 11.0059Z" fill="white"/>
<path d="M12.1758 11.0223C12.0877 10.931 12.0325 10.8702 11.974 10.8118C10.7537 9.59216 9.53302 8.37284 8.31208 7.15382C7.88131 6.72164 8.03811 6.05077 8.60249 5.89546C8.90405 5.81266 9.15276 5.91307 9.36946 6.13034C10.1987 6.96416 11.0301 7.79602 11.8636 8.62592C12.4632 9.22526 13.0625 9.82469 13.6616 10.4242C14.0374 10.8021 14.0359 11.2049 13.656 11.5851C12.2313 13.0118 10.8055 14.4373 9.37886 15.8617C9.03237 16.2078 8.59221 16.2313 8.28301 15.926C7.96705 15.6142 7.99172 15.1699 8.34761 14.8144C9.5525 13.6106 10.7578 12.4077 11.9635 11.2055C12.0228 11.1468 12.0909 11.0957 12.1758 11.0223Z" fill="white"/>
</svg>
