<svg width="28" height="15" viewBox="0 0 28 15" fill="none" xmlns="http://www.w3.org/2000/svg">
<g clip-path="url(#clip0_12_199)">
<path d="M13.9814 15.0001C16.7407 14.9955 19.2413 14.1185 21.5966 12.7765C23.9596 11.4298 26.0303 9.72297 27.8602 7.72842C27.979 7.59961 28.083 7.514 27.9063 7.32581C25.0555 4.28076 21.8092 1.81033 17.7358 0.567013C14.2167 -0.507391 10.8413 0.00628662 7.59266 1.58897C4.74341 2.97651 2.32097 4.91785 0.165078 7.2024C-0.0686465 7.44998 -0.0444142 7.57879 0.178366 7.81403C2.74073 10.5205 5.64235 12.7526 9.17948 14.0931C10.7218 14.6777 12.3195 15.0094 13.9814 15.0001ZM16.9909 1.82267C20.5429 2.79141 23.4007 4.85846 25.9881 7.35511C26.1163 7.47852 26.1006 7.55334 25.9818 7.66132C25.666 7.94823 25.3651 8.25058 25.0469 8.53441C22.8566 10.4881 20.4569 12.107 17.6201 13.0179C17.3411 13.1074 17.0651 13.2431 16.7478 13.1992C16.7689 13.1745 16.7806 13.1498 16.8001 13.1405C19.8339 11.7029 21.1963 8.07858 19.8589 5.03971C19.2492 3.65525 18.2478 2.63946 16.9362 1.89826C16.8807 1.86972 16.7931 1.91137 16.754 1.80262C16.8424 1.81033 16.9166 1.8165 16.9917 1.82344L16.9909 1.82267ZM14.0025 2.32941C16.876 2.33712 19.2288 4.65407 19.2281 7.47389C19.2273 10.3639 16.8908 12.6847 13.9869 12.6793C11.0712 12.6739 8.7347 10.3585 8.73939 7.47775C8.74408 4.63633 11.1102 2.32092 14.0025 2.32941ZM11.129 1.81496C8.89886 3.08295 7.61846 4.94253 7.61767 7.50552C7.61767 10.0677 8.90198 11.9296 11.1376 13.1945C11.0407 13.2022 10.9641 13.1945 10.8914 13.1737C7.39333 12.1772 4.55894 10.1395 1.99344 7.67288C1.81913 7.50552 1.90589 7.42839 2.02549 7.31115C4.05006 5.33897 6.28959 3.66605 8.90589 2.523C9.61645 2.21294 10.345 1.94453 11.1282 1.81341L11.129 1.81496Z" fill="#979797"/>
<path d="M17.4332 9.13437C16.9259 10.6908 14.7817 11.668 12.9737 11.1945C11.0116 10.6808 9.76797 8.68085 10.1932 6.72487C10.6317 4.70949 12.5648 3.40602 14.6285 3.73458C16.4334 4.02227 17.9866 5.79469 17.8014 7.35655C17.0908 6.90072 16.5968 6.87989 16.1489 7.28713C15.7784 7.62342 15.6783 8.15098 15.9003 8.59215C16.1629 9.11277 16.6538 9.29248 17.4332 9.1336V9.13437Z" fill="#FAFAFB"/>
<path d="M16.9908 1.82252C16.9158 1.81635 16.8407 1.80941 16.7532 1.8017C16.7923 1.91122 16.8798 1.8688 16.9353 1.89734C16.9541 1.87266 16.9728 1.84721 16.9916 1.82252H16.9908Z" fill="#FBFBFC"/>
</g>
<defs>
<clipPath id="clip0_12_199">
<rect width="28" height="15" fill="white" transform="matrix(1 0 0 -1 0 15)"/>
</clipPath>
</defs>
</svg>
