<svg width="23" height="23" viewBox="0 0 23 23" fill="none" xmlns="http://www.w3.org/2000/svg">
<g clip-path="url(#clip0_3450_192)">
<path d="M9.91179 33.0001V20.1801C9.91179 19.5743 9.91179 18.9693 9.91179 18.3635C9.91179 17.7534 9.90845 17.1434 9.91429 16.5103H14.4315C14.52 16.0994 15.0309 10.8776 14.9983 10.6989C14.8163 10.6989 14.6302 10.6989 14.4448 10.6989H11.0396C10.8526 10.6989 10.6656 10.7032 10.4786 10.6981C10.2958 10.693 10.1096 10.7236 9.92097 10.6742C9.91763 10.6028 9.91179 10.5424 9.91179 10.4819C9.91179 9.4073 9.91095 8.3318 9.91262 7.25716C9.91262 7.13549 9.92181 7.01211 9.9385 6.89129C10.0253 6.24122 10.4235 5.81494 11.0547 5.69922C11.159 5.6805 11.2675 5.67965 11.3736 5.67965C12.4822 5.67795 13.59 5.67965 14.6986 5.67965C14.7763 5.67965 14.8547 5.67965 14.9274 5.67965C14.9716 5.41503 14.9599 0.180503 14.9174 0.0247949C14.8681 0.0222423 14.8155 0.0188388 14.7637 0.0179879C14.4766 0.0162862 14.1894 0.0154353 13.9022 0.0145845C12.6876 0.0103301 11.4721 0.00947927 10.2574 0.00182148C9.54196 -0.00243286 8.82986 0.0299001 8.12695 0.178802C7.0133 0.415343 6.00985 0.876512 5.17336 1.67803C4.40116 2.41828 3.89192 3.32445 3.56968 4.34549C3.31256 5.16148 3.18984 5.99958 3.18566 6.8547C3.17982 8.05187 3.18399 9.24989 3.18399 10.4471C3.18399 10.5253 3.17565 10.6045 3.17064 10.7023H0V16.5146H3.18316V33.001H9.91179V33.0001Z" fill="white"/>
<path d="M9.91179 32.9999H3.18316V16.5135H0V10.7012H3.16897C3.17398 10.6034 3.18232 10.5251 3.18232 10.446C3.18232 9.24878 3.17815 8.05077 3.18399 6.8536C3.18817 5.99848 3.31089 5.15952 3.56801 4.34439C3.89025 3.3225 4.39949 2.41633 5.17169 1.67693C6.00818 0.87541 7.01247 0.41424 8.12528 0.177699C8.82903 0.0279468 9.54029 -0.00438612 10.2566 -0.00013179C11.4712 0.00752601 12.6867 0.00837687 13.9014 0.0126312C14.1886 0.0134821 14.4757 0.0143329 14.7629 0.0160347C14.8155 0.0160347 14.8673 0.020289 14.9165 0.0228416C14.9599 0.177699 14.9708 5.41308 14.9265 5.6777C14.8531 5.6777 14.7754 5.6777 14.6978 5.6777C13.5892 5.6777 12.4814 5.6777 11.3727 5.6777C11.2659 5.6777 11.1582 5.67855 11.0538 5.69727C10.4235 5.81214 10.0245 6.23927 9.93767 6.88933C9.92181 7.01016 9.91179 7.13353 9.91179 7.2552C9.91012 8.32985 9.91012 9.40534 9.91095 10.48C9.91095 10.5404 9.9168 10.6008 9.92014 10.6723C10.1088 10.7208 10.295 10.6902 10.4778 10.6961C10.6648 10.7021 10.8518 10.697 11.0388 10.697H14.444C14.6302 10.697 14.8155 10.697 14.9975 10.697C15.0301 10.8756 14.5191 16.0974 14.4307 16.5084H9.91346C9.90761 17.1423 9.91095 17.7523 9.91095 18.3616C9.91095 18.9674 9.91095 19.5723 9.91095 20.1782V32.9982L9.91179 32.9999Z" fill="white"/>
</g>
<defs>
<clipPath id="clip0_3450_192">
<rect width="15" height="33" fill="white"/>
</clipPath>
</defs>
</svg>
