<svg width="29" height="29" viewBox="0 0 29 29" fill="none" xmlns="http://www.w3.org/2000/svg">
<path d="M13.5991 0C14.203 0 14.807 0 15.4109 0C15.4837 0.0158729 15.5556 0.0410829 15.6284 0.0466851C17.8061 0.210083 19.8522 0.818856 21.7285 1.93556C25.5836 4.22874 27.9471 7.58353 28.7778 12.0018C28.8768 12.5284 28.9272 13.0634 29 13.5947V15.407C28.9832 15.4892 28.9627 15.5713 28.9505 15.6544C28.8665 16.252 28.8208 16.8571 28.6976 17.4453C27.065 25.2352 19.5218 30.2473 11.7322 28.7291C4.38693 27.2968 -0.702208 20.4527 0.0790856 13.0447C0.409525 9.90844 1.61647 7.14842 3.73165 4.80856C5.96912 2.33332 8.73865 0.790845 12.0346 0.218486C12.5536 0.128851 13.0773 0.071895 13.5991 0ZM16.1857 11.6451C16.1857 10.6498 16.139 9.68622 16.1997 8.73011C16.2529 7.89445 16.7224 7.47522 17.5588 7.42293C18.2635 7.37811 18.9729 7.39305 19.6796 7.38278C19.7897 7.38091 19.8989 7.38278 20.0221 7.38278V3.85992C18.8843 3.85992 17.7613 3.8095 16.644 3.87019C14.1592 4.00465 12.5014 5.61155 12.2988 8.09146C12.212 9.15121 12.2568 10.2222 12.2419 11.2875C12.24 11.3977 12.2419 11.5079 12.2419 11.6526H8.99722C8.98508 11.7217 8.97295 11.7572 8.97295 11.7936C8.97201 12.9355 8.97575 14.0774 8.96735 15.2193C8.96548 15.4406 9.08869 15.4313 9.23898 15.4313C10.1351 15.4294 11.0312 15.4313 11.9282 15.4313C12.0281 15.4313 12.1271 15.4313 12.2484 15.4313V25.1334H16.1502V15.436H19.8812V11.6461H16.1875L16.1857 11.6451Z" fill="#02322C"/>
</svg>
