<svg width="47" height="47" viewBox="0 0 47 47" fill="none" xmlns="http://www.w3.org/2000/svg">
<path d="M21.6902 0.144257C22.6492 0.144257 23.6081 0.144257 24.5671 0.144257C24.6827 0.169461 24.7969 0.209491 24.9125 0.218386C28.3704 0.47784 31.6193 1.44449 34.5985 3.21767C40.7199 6.85891 44.4728 12.1859 45.792 19.2015C45.9491 20.0377 46.0291 20.8872 46.1447 21.7308V24.6085C46.1181 24.739 46.0855 24.8694 46.0662 25.0014C45.9328 25.9502 45.8602 26.911 45.6645 27.845C43.0722 40.2143 31.0947 48.1728 18.7258 45.7621C7.06253 43.4878 -1.01833 32.6204 0.222257 20.8575C0.74695 15.8775 2.66341 11.495 6.02204 7.7796C9.57483 3.84925 13.9725 1.40001 19.2061 0.491183C20.0302 0.348854 20.8617 0.258416 21.6902 0.144257ZM25.7973 18.6351C25.7973 17.0547 25.7232 15.5247 25.8196 14.0065C25.904 12.6796 26.6496 12.0139 27.9776 11.9309C29.0967 11.8597 30.2231 11.8834 31.3451 11.8671C31.52 11.8641 31.6935 11.8671 31.8891 11.8671V6.27329C30.0823 6.27329 28.2993 6.19323 26.5251 6.2896C22.5795 6.50309 19.9471 9.05463 19.6255 12.9924C19.4877 14.6751 19.5588 16.3757 19.5351 18.0673C19.5321 18.2423 19.5351 18.4172 19.5351 18.647H14.383C14.3638 18.7567 14.3445 18.813 14.3445 18.8709C14.343 20.6841 14.3489 22.4973 14.3356 24.3105C14.3326 24.6619 14.5283 24.647 14.7669 24.647C16.1898 24.6441 17.6127 24.647 19.0371 24.647C19.1957 24.647 19.3528 24.647 19.5455 24.647V40.0527H25.741V24.6545H31.6653V18.6366H25.8003L25.7973 18.6351Z" fill="white"/>
</svg>
