<svg width="24" height="24" viewBox="0 0 24 24" fill="none" xmlns="http://www.w3.org/2000/svg">
<path d="M12 24C5.383 24 0 18.617 0 12C0 5.383 5.383 0 12 0C18.617 0 24 5.383 24 12C24 18.617 18.617 24 12 24ZM12 2C6.486 2 2 6.486 2 12C2 17.514 6.486 22 12 22C17.514 22 22 17.514 22 12C22 6.486 17.514 2 12 2ZM14.5 16.33C14.979 16.054 15.143 15.442 14.866 14.964L13 11.732V6C13 5.448 12.553 5 12 5C11.447 5 11 5.448 11 6V12C11 12.176 11.046 12.348 11.134 12.5L13.134 15.964C13.32 16.285 13.655 16.464 14.001 16.464C14.171 16.464 14.343 16.421 14.5 16.33Z" fill="#151A2D"/>
</svg>
