<svg width="24" height="24" viewBox="0 0 24 24" fill="none" xmlns="http://www.w3.org/2000/svg">
<g clip-path="url(#clip0_19_42249)">
<path d="M22.1699 1.82043L21.1199 0.91043C19.9099 -0.29957 17.9499 -0.29957 16.7399 0.91043C16.7099 0.94043 14.8599 3.35043 14.8599 3.35043C13.7199 4.55043 13.7199 6.44043 14.8599 7.63043L16.0199 9.09043C14.5599 12.4004 12.2899 14.6804 9.08994 16.0404L7.62994 14.8704C6.43994 13.7204 4.53994 13.7204 3.34994 14.8704C3.34994 14.8704 0.939943 16.7204 0.909943 16.7504C-0.300057 17.9604 -0.300057 19.9204 0.859943 21.0804L1.85994 22.2304C3.00994 23.3804 4.55994 24.0104 6.23994 24.0104C13.8799 24.0104 23.9999 13.8804 23.9999 6.25043C23.9999 4.58043 23.3699 3.02043 22.1699 1.83043V1.82043ZM6.23994 22.0004C5.09994 22.0004 4.04994 21.5804 3.32994 20.8504L2.32994 19.7004C1.91994 19.2904 1.89994 18.6204 2.28994 18.1904C2.28994 18.1904 4.67994 16.3504 4.70994 16.3204C5.11994 15.9104 5.83994 15.9104 6.25994 16.3204C6.28994 16.3504 8.29994 17.9604 8.29994 17.9604C8.57994 18.1804 8.94994 18.2404 9.27994 18.1104C13.4199 16.5304 16.3899 13.5704 18.0999 9.30043C18.2299 8.97043 18.1799 8.59043 17.9499 8.30043C17.9499 8.30043 16.3399 6.28043 16.3199 6.26043C15.8899 5.83043 15.8899 5.14043 16.3199 4.71043C16.3499 4.68043 18.1899 2.29043 18.1899 2.29043C18.6199 1.90043 19.2899 1.91043 19.7499 2.37043L20.7999 3.28043C21.5699 4.05043 21.9999 5.10043 21.9999 6.24043C21.9999 13.2004 12.2299 22.0004 6.23994 22.0004Z" fill="#151A2D"/>
</g>
<defs>
<clipPath id="clip0_19_42249">
<rect width="24" height="24" fill="white"/>
</clipPath>
</defs>
</svg>
