<svg width="41" height="41" viewBox="0 0 41 41" fill="none" xmlns="http://www.w3.org/2000/svg">
<circle cx="20.5" cy="20.5" r="20.5" fill="white"/>
<g clip-path="url(#clip0_3450_350)">
<path d="M23.6432 31.9942C23.6432 31.8568 23.6432 31.7562 23.6432 31.6556C23.6432 29.5025 23.6432 27.3493 23.6432 25.1954C23.6432 24.4087 23.3241 24.083 22.5561 24.083C21.1827 24.083 19.8099 24.083 18.4364 24.083C17.6527 24.083 17.3398 24.4042 17.3398 25.2103C17.3398 27.3718 17.3367 29.534 17.3443 31.6956C17.3449 31.9252 17.2937 32.0019 17.0541 32C15.5714 31.9884 14.0886 31.9948 12.6058 31.9936C11.6824 31.9929 11.1982 31.5028 11.1982 30.5691C11.1976 26.6999 11.2008 22.8307 11.1951 18.9615C11.1944 18.434 11.3777 18.0271 11.7822 17.6918C14.3755 15.5418 16.9606 13.3822 19.5488 11.2258C20.2251 10.6622 20.7535 10.6596 21.4241 11.218C24.0187 13.3796 26.6113 15.5444 29.2103 17.7002C29.6079 18.0297 29.788 18.4321 29.7874 18.9493C29.7823 22.8268 29.7855 26.7044 29.7842 30.5826C29.7842 31.4899 29.2982 31.9916 28.4146 31.9936C26.9147 31.9968 25.4155 31.9942 23.9157 31.9942C23.8404 31.9942 23.7659 31.9942 23.6445 31.9942H23.6432Z" fill="#0793BF"/>
<path d="M32.9997 17.4474C32.9833 17.7034 32.9997 17.9665 32.9447 18.2142C32.7987 18.8706 32.2375 19.2537 31.5669 19.1892C30.9677 19.1312 30.4873 18.6211 30.4722 17.9466C30.4652 17.6473 30.3458 17.4894 30.1366 17.321C27.2247 14.9725 24.3179 12.6174 21.4105 10.263C20.7633 9.7394 20.2153 9.74005 19.5618 10.2695C16.6411 12.6335 13.7204 14.9989 10.7959 17.3591C10.6145 17.5055 10.514 17.6448 10.5115 17.9053C10.5052 18.6017 10.0217 19.1344 9.40288 19.1899C8.73291 19.2492 8.13752 18.8642 8.04019 18.2039C7.96687 17.7028 8.00353 17.1785 8.04272 16.6684C8.068 16.3415 8.29427 16.0984 8.54583 15.8946C11.9241 13.163 15.298 10.4275 18.6775 7.70035C19.8374 6.76401 21.1501 6.76788 22.3118 7.70615C25.6844 10.4294 29.0513 13.1597 32.422 15.8849C32.7969 16.188 32.9985 16.5685 32.9839 17.0612C32.9801 17.1895 32.9839 17.3185 32.9839 17.4474C32.989 17.4474 32.9947 17.4474 32.9997 17.4481V17.4474Z" fill="#0793BF"/>
</g>
<defs>
<clipPath id="clip0_3450_350">
<rect width="25" height="25" fill="white" transform="translate(8 7)"/>
</clipPath>
</defs>
</svg>
