<svg width="18" height="19" viewBox="0 0 18 19" fill="none" xmlns="http://www.w3.org/2000/svg">
    <g clip-path="url(#clip0_6035_43451)">
        <path
            d="M9 0.5C7.21997 0.5 5.47991 1.02784 3.99987 2.01677C2.51983 3.00571 1.36628 4.41131 0.685088 6.05585C0.00389957 7.70038 -0.17433 9.50998 0.172937 11.2558C0.520204 13.0016 1.37737 14.6053 2.63604 15.864C3.89472 17.1226 5.49836 17.9798 7.24419 18.3271C8.99002 18.6743 10.7996 18.4961 12.4442 17.8149C14.0887 17.1337 15.4943 15.9802 16.4832 14.5001C17.4722 13.0201 18 11.28 18 9.5C17.9974 7.11384 17.0484 4.82616 15.3611 3.13889C13.6738 1.45162 11.3862 0.502581 9 0.5ZM9 17C7.51664 17 6.0666 16.5601 4.83323 15.736C3.59986 14.9119 2.63856 13.7406 2.07091 12.3701C1.50325 10.9997 1.35473 9.49168 1.64411 8.03682C1.9335 6.58197 2.64781 5.24559 3.6967 4.1967C4.7456 3.14781 6.08197 2.4335 7.53683 2.14411C8.99168 1.85472 10.4997 2.00325 11.8701 2.5709C13.2406 3.13856 14.4119 4.09985 15.236 5.33322C16.0601 6.56659 16.5 8.01664 16.5 9.5C16.4978 11.4885 15.7069 13.3948 14.3009 14.8009C12.8948 16.2069 10.9885 16.9978 9 17Z"
            fill="#151A2D" />
        <path
            d="M9 8H8.25C8.05109 8 7.86032 8.07902 7.71967 8.21967C7.57902 8.36032 7.5 8.55109 7.5 8.75C7.5 8.94891 7.57902 9.13968 7.71967 9.28033C7.86032 9.42098 8.05109 9.5 8.25 9.5H9V14C9 14.1989 9.07902 14.3897 9.21967 14.5303C9.36032 14.671 9.55109 14.75 9.75 14.75C9.94891 14.75 10.1397 14.671 10.2803 14.5303C10.421 14.3897 10.5 14.1989 10.5 14V9.5C10.5 9.10218 10.342 8.72064 10.0607 8.43934C9.77936 8.15804 9.39782 8 9 8Z"
            fill="#151A2D" />
        <path
            d="M9 6.5C9.62132 6.5 10.125 5.99632 10.125 5.375C10.125 4.75368 9.62132 4.25 9 4.25C8.37868 4.25 7.875 4.75368 7.875 5.375C7.875 5.99632 8.37868 6.5 9 6.5Z"
            fill="#151A2D" />
    </g>
    <defs>
        <clipPath id="clip0_6035_43451">
            <rect width="18" height="18" fill="white" transform="translate(0 0.5)" />
        </clipPath>
    </defs>
</svg>