<svg width="46" height="47" viewBox="0 0 46 47" fill="none" xmlns="http://www.w3.org/2000/svg">
  <g clip-path="url(#clip0_3459_212)">
    <path d="M19.3671 21.7505C19.8651 24.6497 21.1144 26.4195 23.5649 27.103C26.0473 27.7947 27.9118 26.7221 29.5792 24.9415C32.5411 21.7775 35.5749 18.6865 38.5528 15.5388C41.0619 12.8855 41.1445 9.40813 38.7925 7.15742C36.4805 4.94455 33.2177 5.17421 30.6953 7.74644C29.0039 9.47027 27.6135 11.902 25.5759 12.7504C23.6767 13.5394 21.101 12.6558 19.2179 12.5343C22.4248 9.12442 25.5572 5.0148 29.446 1.86435C33.5027 -1.42389 39.6875 -0.116162 43.2274 3.88539C46.7034 7.81399 47.0203 14.0798 43.5444 18.0651C39.8606 22.2909 36.0064 26.4032 31.9045 30.2103C27.1447 34.6252 19.3111 33.2823 15.8085 27.8299C15.1932 26.868 15.0068 26.1466 16.0056 25.2738C17.1137 24.3065 18.0566 23.142 19.3644 21.7532L19.3671 21.7505Z" fill="#0097a7"/>
    <path d="M27.0114 25.5602C24.8752 19.1702 20.5442 18.1786 16.2612 22.5287C13.3233 25.5116 10.3614 28.4729 7.4474 31.4775C4.97826 34.0254 4.83709 37.4109 7.03987 39.694C9.34387 42.0798 12.6387 41.9177 15.2863 39.2941C15.3369 39.2455 15.3875 39.1942 15.4355 39.1428C17.0869 37.4838 18.4799 35.1467 20.467 34.3685C22.3102 33.6471 24.79 34.5901 27.5787 34.8549C23.6606 38.5376 20.2645 42.3797 16.2372 45.341C12.0261 48.4375 5.88122 46.9622 2.53043 42.8526C-0.817685 38.7456 -0.913573 32.6015 2.65562 28.6675C6.32603 24.6227 10.1509 20.6968 14.1649 17.006C19.0206 12.5424 26.9235 13.8771 30.3915 19.4458C30.9961 20.4158 31.1772 21.1183 30.197 22.0072C29.105 22.9988 28.202 24.2066 27.0087 25.5575L27.0114 25.5602Z" fill="#0097a7"/>
  </g>
  <defs>
    <clipPath id="clip0_3459_212">
      <rect width="46" height="47" fill="white"/>
    </clipPath>
  </defs>
</svg>
