<svg width="34" height="33" viewBox="0 0 34 33" fill="none" xmlns="http://www.w3.org/2000/svg">
<g clip-path="url(#clip0_3459_156)">
<path d="M21.2747 32.9923C21.2747 32.811 21.2747 32.6782 21.2747 32.5454C21.2747 29.7032 21.2747 26.861 21.2747 24.018C21.2747 22.9795 20.8406 22.5496 19.7962 22.5496C17.9284 22.5496 16.0614 22.5496 14.1935 22.5496C13.1276 22.5496 12.7021 22.9735 12.7021 24.0375C12.7021 26.8908 12.6978 29.7449 12.7081 32.5982C12.709 32.9013 12.6393 33.0026 12.3136 33C10.297 32.9847 8.28039 32.9932 6.26381 32.9915C5.00796 32.9906 4.34951 32.3437 4.34951 31.1111C4.34866 26.0038 4.35295 20.8965 4.34522 15.7892C4.34436 15.0929 4.59364 14.5558 5.14377 14.1132C8.67065 11.2752 12.1863 8.4245 15.7063 5.57802C16.6261 4.83406 17.3447 4.83066 18.2567 5.56781C21.7853 8.42109 25.3113 11.2786 28.8459 14.1242C29.3866 14.5592 29.6316 15.0904 29.6307 15.7731C29.6239 20.8914 29.6282 26.0098 29.6265 31.129C29.6265 32.3267 28.9654 32.9889 27.7637 32.9915C25.7239 32.9957 23.685 32.9923 21.6452 32.9923C21.5429 32.9923 21.4415 32.9923 21.2765 32.9923H21.2747Z" fill="white"/>
<path d="M33.9999 13.7906C33.9775 14.1285 33.9999 14.4758 33.9251 14.8027C33.7265 15.6692 32.9632 16.1749 32.0512 16.0897C31.2363 16.0131 30.583 15.3398 30.5624 14.4494C30.5529 14.0545 30.3905 13.8459 30.1059 13.6238C26.1458 10.5236 22.1926 7.41498 18.2385 4.30718C17.3583 3.61599 16.613 3.61685 15.7242 4.3157C11.7521 7.43626 7.77995 10.5585 3.80266 13.674C3.55596 13.8672 3.41928 14.0511 3.41585 14.395C3.40725 15.3143 2.74967 16.0174 1.90813 16.0906C0.996975 16.1689 0.187247 15.6607 0.0548708 14.7891C-0.0448409 14.1277 0.00501495 13.4356 0.0583092 12.7623C0.0926925 12.3308 0.400424 12.0098 0.742538 11.7409C5.33702 8.13511 9.92548 4.52424 14.5217 0.924445C16.099 -0.311523 17.8844 -0.306416 19.4643 0.932106C24.051 4.5268 28.63 8.13085 33.2142 11.7281C33.7239 12.1282 33.9981 12.6304 33.9784 13.2807C33.9732 13.4501 33.9784 13.6204 33.9784 13.7906C33.9852 13.7906 33.993 13.7906 33.9999 13.7914V13.7906Z" fill="white"/>
</g>
<defs>
<clipPath id="clip0_3459_156">
<rect width="34" height="33" fill="white"/>
</clipPath>
</defs>
</svg>
