<svg width="34" height="33" viewBox="0 0 34 33" fill="none" xmlns="http://www.w3.org/2000/svg">
<g clip-path="url(#clip0_3459_168)">
<path d="M21.2747 32.9923C21.2747 32.811 21.2747 32.6782 21.2747 32.5454C21.2747 29.7032 21.2747 26.861 21.2747 24.018C21.2747 22.9795 20.8406 22.5496 19.7962 22.5496C17.9284 22.5496 16.0613 22.5496 14.1935 22.5496C13.1276 22.5496 12.7021 22.9735 12.7021 24.0375C12.7021 26.8908 12.6978 29.7449 12.7081 32.5982C12.709 32.9013 12.6393 33.0026 12.3135 33C10.297 32.9847 8.28038 32.9932 6.26379 32.9915C5.00794 32.9906 4.3495 32.3437 4.3495 31.1111C4.34864 26.0038 4.35294 20.8965 4.3452 15.7892C4.34434 15.0929 4.59362 14.5558 5.14376 14.1132C8.67063 11.2752 12.1863 8.4245 15.7063 5.57802C16.6261 4.83406 17.3447 4.83066 18.2567 5.56781C21.7853 8.42109 25.3113 11.2786 28.8459 14.1242C29.3866 14.5592 29.6316 15.0904 29.6307 15.7731C29.6239 20.8914 29.6282 26.0098 29.6264 31.129C29.6264 32.3267 28.9654 32.9889 27.7637 32.9915C25.7239 32.9957 23.685 32.9923 21.6452 32.9923C21.5429 32.9923 21.4415 32.9923 21.2764 32.9923H21.2747Z" fill="white"/>
<path d="M33.9997 13.7906C33.9774 14.1285 33.9997 14.4758 33.9249 14.8027C33.7264 15.6692 32.9631 16.1749 32.0511 16.0897C31.2362 16.0131 30.5829 15.3398 30.5623 14.4494C30.5528 14.0545 30.3903 13.8459 30.1058 13.6238C26.1457 10.5236 22.1925 7.41498 18.2384 4.30718C17.3582 3.61599 16.6129 3.61685 15.7241 4.3157C11.752 7.43626 7.77983 10.5585 3.80254 13.674C3.55584 13.8672 3.41916 14.0511 3.41572 14.395C3.40713 15.3143 2.74955 16.0174 1.90801 16.0906C0.996853 16.1689 0.187125 15.6607 0.0547488 14.7891C-0.044963 14.1277 0.00489288 13.4356 0.0581871 12.7623C0.0925705 12.3308 0.400302 12.0098 0.742416 11.7409C5.33689 8.13511 9.92536 4.52424 14.5216 0.924445C16.0989 -0.311523 17.8842 -0.306416 19.4642 0.932106C24.0509 4.5268 28.6299 8.13085 33.2141 11.7281C33.7238 12.1282 33.998 12.6304 33.9782 13.2807C33.9731 13.4501 33.9782 13.6204 33.9782 13.7906C33.9851 13.7906 33.9929 13.7906 33.9997 13.7914V13.7906Z" fill="white"/>
</g>
<defs>
<clipPath id="clip0_3459_168">
<rect width="34" height="33" fill="white"/>
</clipPath>
</defs>
</svg>
