<svg width="46" height="46" viewBox="0 0 46 46" fill="none" xmlns="http://www.w3.org/2000/svg">
<path d="M22.5443 45.2166C10.421 45.0662 0.135954 35.7334 0.0967759 22.7C0.0622991 10.8245 9.29268 0.274345 22.5819 0.264944C36.031 0.255544 45.0796 11.1911 45.0483 22.7455C45.0169 34.643 35.8007 45.0145 22.5443 45.2166ZM22.245 29.946C23.1148 30.5915 24.0017 31.2479 24.8872 31.906C25.8196 32.5969 26.7427 33.3003 27.6845 33.9771C28.7125 34.715 29.5055 34.4174 29.8221 33.1969C29.8456 33.106 29.8675 33.0136 29.8879 32.9227C31.0131 27.6383 32.1414 22.3554 33.2588 17.0693C33.4092 16.3596 33.5753 15.6421 33.6067 14.923C33.6412 14.0832 32.9579 13.6351 32.1539 13.8701C32.0254 13.9077 31.8969 13.9532 31.7716 14.0017C25.1975 16.5367 18.6218 19.07 12.0493 21.6096C11.2579 21.9151 10.4727 22.2394 9.70014 22.5872C9.39768 22.7235 9.17202 22.9915 9.20806 23.3581C9.2441 23.7325 9.56066 23.8375 9.86155 23.9299C11.6653 24.4814 13.4722 25.0219 15.2713 25.5859C15.5487 25.6736 15.7461 25.6329 15.9796 25.4841C17.343 24.613 18.7158 23.756 20.0855 22.8943C22.9048 21.1208 25.724 19.3457 28.5433 17.5738C28.7815 17.4234 29.0369 17.2417 29.3018 17.472C29.3268 17.4939 29.1028 17.8809 28.9351 18.0344C25.6441 21.055 22.3422 24.0646 19.0528 27.0852C18.9133 27.2137 18.7973 27.433 18.7785 27.621C18.6594 28.829 18.5685 30.04 18.4729 31.2495C18.4259 31.848 18.3914 32.448 18.3428 33.1718C20.0338 32.4574 20.9035 30.9393 22.2434 29.9507L22.245 29.946Z" fill="white"/>
</svg>
