<svg width="25" height="21" viewBox="0 0 25 21" fill="none" xmlns="http://www.w3.org/2000/svg">
<g clip-path="url(#clip0_807_379)">
<path d="M12.5049 16.466C11.7483 17.045 11.0046 17.6136 10.2617 18.1832C9.0854 19.0854 7.91009 19.9881 6.73413 20.8903C6.54301 21.0367 6.36721 21.0349 6.17317 20.8862C4.18555 19.3626 2.19891 17.8381 0.209343 16.317C0.0527426 16.1969 0 16.0511 0 15.8666C0.002279 14.3631 0.00130229 12.8597 0.00130229 11.3562C0.00130229 8.31251 0.00130229 5.26882 0.00130229 2.22544C0.00130229 2.17829 -0.000976715 2.13114 0.00195343 2.08399C0.0117206 1.91614 0.0742304 1.7772 0.244179 1.70679C0.40436 1.64047 0.549565 1.67253 0.684026 1.77595C1.17987 2.15786 1.67669 2.53884 2.17352 2.91981C3.56208 3.98477 4.95032 5.04973 6.33921 6.11438C6.37697 6.1433 6.41702 6.17002 6.45967 6.20051C6.96235 5.81482 7.46438 5.43196 7.96218 5.04407C7.99376 5.01956 8.0146 4.95669 8.00874 4.91582C7.68707 2.68186 9.34195 0.468005 11.7583 0.0647151C14.2578 -0.352406 16.6471 1.27553 17.0564 3.69621C17.1277 4.11773 17.1501 4.53768 17.0642 4.95983C17.0561 5.00038 17.0785 5.06639 17.1111 5.09185C17.5877 5.46308 18.0683 5.82928 18.556 6.20239C18.9935 5.867 19.4256 5.53569 19.8579 5.20438C21.3442 4.06461 22.8304 2.92515 24.3156 1.78475C24.4592 1.67442 24.6135 1.63198 24.7828 1.71402C24.9453 1.79261 24.9997 1.92714 24.9993 2.10191C24.9967 6.70658 24.9964 11.3113 25 15.9159C25 16.0901 24.9372 16.2111 24.7981 16.3176C22.8304 17.8233 20.8652 19.3321 18.8991 20.8397C18.6201 21.0537 18.4918 21.0534 18.2112 20.8381C16.385 19.4384 14.5592 18.0377 12.7331 16.6376C12.6612 16.5823 12.5879 16.5286 12.5049 16.4663V16.466ZM18.1549 19.8108C18.1578 19.747 18.1604 19.7165 18.1604 19.6857C18.1604 15.4579 18.161 11.2305 18.1565 7.00269C18.1565 6.93793 18.1112 6.85369 18.0588 6.81189C17.6694 6.50258 17.2729 6.20176 16.8776 5.89937C16.8506 5.87863 16.8158 5.86763 16.78 5.8494C16.4033 6.70878 15.9071 7.48896 15.3409 8.22419C14.5257 9.28255 13.6867 10.3236 12.8539 11.3694C12.6826 11.5847 12.3834 11.5612 12.2021 11.3348C11.7144 10.7263 11.2234 10.1199 10.7357 9.51107C9.94947 8.52972 9.17917 7.53737 8.5876 6.42966C8.47789 6.22408 8.38152 6.01191 8.2744 5.79344C7.81502 6.1455 7.36313 6.48844 6.91742 6.83829C6.87738 6.86972 6.85784 6.94642 6.85784 7.00206C6.85524 11.2192 6.85524 15.4363 6.85589 19.6537C6.85589 19.6958 6.86403 19.7376 6.86989 19.7948C6.91026 19.7681 6.92882 19.7574 6.94575 19.7445C8.69504 18.4029 10.4443 17.061 12.1936 15.7192C12.4183 15.5469 12.5879 15.5425 12.8067 15.71C14.0471 16.6603 15.2869 17.6111 16.5267 18.562C17.0609 18.9716 17.5952 19.3811 18.1549 19.8105V19.8108ZM24.2063 2.86166C24.1314 2.91604 24.0881 2.9459 24.0467 2.97796C22.3857 4.2507 20.7256 5.52375 19.0629 6.79428C18.9763 6.86061 18.9506 6.93228 18.9506 7.03443C18.9528 9.74808 18.9525 12.4617 18.9525 15.1757V15.3558C19.0362 15.3558 19.0951 15.3574 19.154 15.3558C19.5496 15.3435 19.9448 15.3288 20.3404 15.3184C20.5983 15.3118 20.7725 15.4507 20.7913 15.6714C20.8092 15.8788 20.6549 16.0476 20.4117 16.08C20.3153 16.0929 20.2174 16.1008 20.1203 16.1011C19.7371 16.1036 19.3536 16.102 18.9649 16.102V19.7926C18.9984 19.7725 19.0173 19.7634 19.0332 19.7508C20.7327 18.4491 22.4319 17.1478 24.1297 15.8443C24.1639 15.8179 24.2001 15.771 24.2024 15.7324C24.2108 15.5783 24.2056 15.4234 24.2056 15.2593C24.1574 15.2712 24.1317 15.2766 24.107 15.2841C23.6743 15.4165 23.2435 15.5548 22.8086 15.6796C22.5843 15.744 22.3704 15.6201 22.3101 15.4136C22.2505 15.2087 22.3726 15.0103 22.5966 14.9399C23.0746 14.7903 23.5483 14.6268 24.0311 14.4942C24.1919 14.4499 24.2089 14.3792 24.2085 14.2459C24.2056 10.521 24.2063 6.79617 24.2063 3.07132V2.86166ZM6.04847 11.7878C5.94494 11.8246 5.84857 11.8833 5.74829 11.8906C5.22477 11.9292 4.70028 11.9585 4.17546 11.9833C3.9443 11.9943 3.78412 11.8547 3.76524 11.6476C3.74505 11.4288 3.87854 11.2531 4.10969 11.2324C4.55703 11.1921 5.00566 11.1623 5.4543 11.1387C5.65876 11.128 5.87396 11.0963 6.04977 11.2789C6.05368 11.2295 6.05694 11.2091 6.05694 11.1884C6.05694 9.78988 6.05856 8.39141 6.0527 6.99294C6.0527 6.92882 6.00322 6.84489 5.9495 6.8034C4.2842 5.51997 2.61564 4.24064 0.947088 2.96098C0.908345 2.93112 0.866346 2.90503 0.81458 2.86951V11.9974C1.11248 11.9031 1.39833 11.8107 1.68614 11.7233C1.75711 11.702 1.8346 11.6825 1.90687 11.6885C2.1045 11.7045 2.24872 11.8497 2.26891 12.0342C2.28812 12.2096 2.17091 12.3753 1.97882 12.4403C1.63209 12.5582 1.28666 12.6783 0.937647 12.7899C0.832487 12.8235 0.801883 12.8738 0.802209 12.9804C0.807418 13.8602 0.808069 14.7403 0.801883 15.6201C0.800906 15.7446 0.845184 15.8188 0.94253 15.8933C2.61271 17.1707 4.28029 18.451 5.94917 19.7304C5.97587 19.7508 6.00843 19.7637 6.04847 19.7857V11.7878ZM12.5417 10.4912C12.96 9.9766 13.368 9.48121 13.7691 8.98079C14.4954 8.07456 15.2058 7.15765 15.7645 6.14141C16.1894 5.36815 16.4479 4.57383 16.248 3.67641C15.8368 1.82907 14.0295 0.534644 12.0439 0.804028C10.7058 0.985398 9.72515 1.68605 9.13066 2.86103C8.80997 3.49441 8.67681 4.1674 8.81778 4.87088C8.91318 5.34678 9.12447 5.78276 9.35986 6.20742C9.81859 7.03569 10.3815 7.79764 10.9698 8.54229C11.4823 9.19076 12.0077 9.83012 12.542 10.4908L12.5417 10.4912Z" fill="#02322C"/>
<path d="M8.06343 11.3255C8.48635 11.4333 8.90959 11.5393 9.33153 11.6499C9.45655 11.6826 9.58027 11.7222 9.69975 11.7697C9.90128 11.8501 9.9944 12.0557 9.92505 12.2468C9.85049 12.4518 9.65222 12.5498 9.43278 12.4926C8.93759 12.3631 8.4424 12.2349 7.9472 12.106C7.74795 12.0541 7.62163 11.8734 7.648 11.6776C7.67437 11.4824 7.8466 11.3441 8.06343 11.3252V11.3255Z" fill="#02322C"/>
<path d="M16.4474 15.8182C16.2367 15.7604 15.96 15.6909 15.6878 15.6079C15.4306 15.5293 15.176 15.4413 14.9237 15.3489C14.6775 15.2587 14.5734 15.0528 14.6541 14.8388C14.7316 14.6335 14.967 14.5514 15.2086 14.6288C15.68 14.7793 16.1547 14.9198 16.6277 15.0654C16.8221 15.1251 16.9435 15.3081 16.9116 15.4882C16.8781 15.6793 16.7127 15.817 16.447 15.8182H16.4474Z" fill="#02322C"/>
<path d="M12.9456 14.3335C12.8593 14.2965 12.7656 14.2701 12.6881 14.2204C12.2736 13.9551 11.8621 13.6851 11.4512 13.4148C11.2588 13.2881 11.2067 13.075 11.319 12.8939C11.434 12.7088 11.6736 12.6393 11.8689 12.7619C12.3218 13.0464 12.7682 13.3412 13.2113 13.6398C13.349 13.7325 13.3881 13.9293 13.3268 14.0799C13.2695 14.2204 13.1243 14.3109 12.9456 14.3335Z" fill="#02322C"/>
<path d="M12.5437 1.88574C13.9935 1.88386 15.1655 3.01672 15.1652 4.41959C15.1652 5.81617 13.9964 6.95249 12.5597 6.95374C11.0988 6.955 9.92448 5.83283 9.92383 4.43468C9.92318 3.01389 11.0809 1.88763 12.5437 1.88574ZM12.5372 6.17766C13.551 6.17923 14.3679 5.39811 14.3741 4.42147C14.3799 3.46213 13.538 2.64737 12.5431 2.64926C11.5478 2.65146 10.7228 3.44547 10.7153 4.40796C10.7078 5.38176 11.5256 6.17577 12.5372 6.17734V6.17766Z" fill="#02322C"/>
</g>
<defs>
<clipPath id="clip0_807_379">
<rect width="25" height="21" fill="white"/>
</clipPath>
</defs>
</svg>
