<svg width="31" height="40" viewBox="0 0 31 40" fill="none" xmlns="http://www.w3.org/2000/svg">
<path d="M0.450141 39.6261C0.0989672 39.4229 0 39.1079 0 38.7173C0.00425665 28.0895 0.00425665 17.4628 0 6.835C0 6.50405 0.0989672 6.24759 0.33734 6.01028C2.24006 4.12032 4.13321 2.21973 6.03168 0.324452C6.14874 0.207394 6.28388 0.108427 6.41052 0.000946045C13.2478 0.000946045 20.084 0.000946045 26.9212 0.000946045C27.2745 0.205265 27.366 0.525579 27.366 0.912934C27.3618 13.5126 27.3618 26.1134 27.366 38.7131C27.366 39.1004 27.2745 39.4207 26.9212 39.6251H0.450141V39.6261ZM7.25759 1.30561V1.74405C7.25759 3.2658 7.25759 4.78755 7.25759 6.30931C7.25759 7.0489 7.05966 7.2479 6.31474 7.24896C4.79299 7.25109 3.27124 7.24896 1.74948 7.24896C1.61114 7.24896 1.47387 7.24896 1.31637 7.24896V38.3215H26.0411V1.30561H7.25759ZM5.95293 2.32508C4.73659 3.54142 3.53302 4.74605 2.33903 5.93898H5.95399V2.32614L5.95293 2.32508Z" fill="white"/>
<path d="M29.088 39.6262C28.8219 39.4485 28.5495 39.2378 28.6708 38.8877C28.74 38.6898 28.9603 38.5355 29.1337 38.3865C29.2018 38.329 29.3295 38.3407 29.4551 38.3163V1.30892C29.0997 1.26103 28.7368 1.1908 28.6548 0.74385C28.5878 0.374586 28.8219 0.177715 29.088 0H30.3267C30.6778 0.203255 30.7779 0.519312 30.7768 0.90986C30.7725 13.5117 30.7725 26.1146 30.7768 38.7164C30.7768 39.1069 30.6778 39.4219 30.3267 39.6262H29.088Z" fill="white"/>
<path d="M5.56665 26.8499V32.3452H11.3461C11.3461 32.1877 11.3461 32.0494 11.3461 31.9111C11.3461 30.8799 11.3408 29.8477 11.3514 28.8165C11.3557 28.3993 11.6217 28.1312 11.9825 28.1322C12.3411 28.1333 12.6061 28.4068 12.6093 28.8229C12.6167 30.202 12.6178 31.5822 12.6093 32.9614C12.6061 33.4083 12.3613 33.6595 11.9091 33.6616C9.60089 33.6691 7.29272 33.6691 4.98455 33.6616C4.54824 33.6605 4.32477 33.4307 4.27369 33.0018C4.26518 32.9252 4.2673 32.8475 4.2673 32.7698C4.2673 30.6681 4.26518 28.5664 4.2673 26.4647C4.2673 25.7836 4.49184 25.5612 5.17291 25.5601C7.35231 25.558 9.53066 25.558 11.7101 25.5612C11.8633 25.5612 12.0602 25.541 12.1591 25.6229C12.339 25.774 12.5699 25.9911 12.5752 26.1869C12.5816 26.3838 12.372 26.6275 12.1932 26.7743C12.0772 26.8701 11.8495 26.8478 11.6707 26.8478C9.78818 26.852 7.90568 26.851 6.02317 26.851H5.56558L5.56665 26.8499Z" fill="white"/>
<path d="M13.6819 11.9272C16.4935 11.9272 19.305 11.9272 22.1165 11.9293C22.2825 11.9293 22.4538 11.9357 22.6135 11.9729C22.9338 12.0485 23.0881 12.2783 23.0764 12.5976C23.0657 12.8998 22.9051 13.1073 22.5996 13.1722C22.4624 13.201 22.3187 13.2137 22.1782 13.2137C16.5158 13.2159 10.8545 13.2159 5.19205 13.2137C5.03881 13.2137 4.88132 13.202 4.7334 13.1637C4.43117 13.086 4.24388 12.8466 4.30028 12.5678C4.34391 12.3528 4.53653 12.1347 4.72063 11.9953C4.84194 11.9027 5.06648 11.9303 5.24526 11.9293C8.05678 11.9261 10.8683 11.9272 13.6798 11.9272H13.6819Z" fill="white"/>
<path d="M13.6863 22.1506C16.4978 22.1506 19.3093 22.1506 22.1219 22.1506C22.7742 22.1506 23.0786 22.3538 23.0829 22.7891C23.0871 23.2275 22.7806 23.4403 22.1357 23.4403C16.4989 23.4403 10.8631 23.4403 5.22619 23.4403C4.58876 23.4403 4.27164 23.219 4.28122 22.7837C4.28973 22.3623 4.59727 22.1506 5.21236 22.1506C8.03665 22.1506 10.862 22.1506 13.6863 22.1506Z" fill="white"/>
<path d="M15.8349 5.96251C17.9494 5.96251 20.0638 5.96145 22.1783 5.96464C22.3433 5.96464 22.5178 5.97315 22.6721 6.02423C22.9648 6.12001 23.0956 6.35093 23.0744 6.65422C23.0541 6.94154 22.8998 7.13735 22.6157 7.20333C22.4667 7.23738 22.3092 7.24802 22.156 7.24909C17.927 7.25121 13.698 7.25121 9.46903 7.24909C9.32856 7.24909 9.18596 7.23844 9.04762 7.21184C8.72199 7.15118 8.55598 6.9309 8.55066 6.61484C8.54534 6.29666 8.71348 6.07318 9.0306 5.99869C9.17852 5.96358 9.33708 5.96464 9.49032 5.96464C11.6048 5.96251 13.7193 5.96358 15.8338 5.96358L15.8349 5.96251Z" fill="white"/>
<path d="M18.9092 15.3335C20.0042 15.3335 21.0993 15.3303 22.1943 15.3367C22.3592 15.3367 22.5753 15.3197 22.6774 15.4112C22.8498 15.5666 23.0477 15.8007 23.052 16.005C23.0552 16.1891 22.8413 16.4136 22.6678 16.552C22.5572 16.6403 22.3475 16.6233 22.1826 16.6233C20.0053 16.6275 17.828 16.6265 15.6507 16.6233C15.4986 16.6233 15.2996 16.6424 15.2027 16.5594C15.025 16.4073 14.7973 16.187 14.793 15.9912C14.7888 15.7943 15.0027 15.5591 15.1783 15.4069C15.2825 15.3165 15.4975 15.3367 15.6625 15.3356C16.7447 15.3303 17.827 15.3325 18.9092 15.3325V15.3335Z" fill="white"/>
<path d="M8.41978 15.3335C9.51481 15.3335 10.6098 15.3314 11.7049 15.3367C11.8698 15.3367 12.0848 15.3176 12.1891 15.408C12.3646 15.5602 12.5796 15.7954 12.5764 15.9922C12.5722 16.188 12.3412 16.403 12.1667 16.5616C12.0805 16.6392 11.8964 16.6244 11.757 16.6244C9.55418 16.6275 7.35136 16.6275 5.14855 16.6244C4.99637 16.6244 4.79524 16.6392 4.70266 16.5541C4.5292 16.3945 4.32063 16.171 4.31318 15.9667C4.30573 15.7826 4.51963 15.5538 4.69096 15.4123C4.7995 15.3229 5.0102 15.3388 5.17515 15.3378C6.2574 15.3325 7.33966 15.3346 8.42191 15.3346L8.41978 15.3335Z" fill="white"/>
<path d="M8.4633 18.7431C9.54556 18.7431 10.6278 18.7399 11.7101 18.7452C11.875 18.7452 12.091 18.7261 12.1943 18.8165C12.3688 18.9698 12.571 19.2017 12.5774 19.4061C12.5827 19.5902 12.372 19.8222 12.1975 19.9552C12.0751 20.0488 11.8527 20.0297 11.6749 20.0297C9.52321 20.0339 7.37147 20.0329 5.2208 20.0329C5.16972 20.0329 5.11757 20.0339 5.06649 20.0329C4.5674 20.0169 4.27156 19.7668 4.28433 19.3699C4.29604 18.9878 4.58017 18.7484 5.0633 18.7452C6.19663 18.7388 7.33103 18.7431 8.46437 18.7431H8.4633Z" fill="white"/>
<path d="M18.9495 20.0329C17.8544 20.0329 16.7594 20.0339 15.6644 20.0308C15.5239 20.0308 15.3803 20.0212 15.244 19.9882C14.9269 19.9126 14.7609 19.6977 14.7662 19.3752C14.7716 19.0528 14.9493 18.8474 15.2653 18.7772C15.3771 18.7527 15.4941 18.7431 15.6091 18.7431C17.8119 18.741 20.0147 18.741 22.2186 18.7431C22.358 18.7431 22.5027 18.7569 22.6379 18.7931C22.939 18.8751 23.0816 19.0975 23.0784 19.3965C23.0752 19.6796 22.9348 19.8945 22.6528 19.9712C22.4942 20.0148 22.3229 20.0265 22.1579 20.0276C21.0884 20.0318 20.0189 20.0297 18.9505 20.0297L18.9495 20.0329Z" fill="white"/>
<path d="M18.9082 26.8499C17.8259 26.8499 16.7436 26.852 15.6614 26.8467C15.4964 26.8467 15.2815 26.8669 15.1772 26.7765C15.0016 26.6243 14.7888 26.3881 14.793 26.1912C14.7973 25.9954 15.0218 25.7708 15.2027 25.6251C15.3123 25.5367 15.523 25.5612 15.6891 25.5601C17.8408 25.557 19.9915 25.558 22.1432 25.558C22.2592 25.558 22.3763 25.5548 22.4901 25.5729C22.8679 25.6325 23.0882 25.8783 23.0807 26.2178C23.0733 26.5541 22.8392 26.7935 22.4625 26.8414C22.3603 26.8542 22.2571 26.8488 22.1538 26.8488C21.0716 26.8488 19.9893 26.8488 18.9071 26.8488L18.9082 26.8499Z" fill="white"/>
<path d="M18.9081 30.2563C17.813 30.2563 16.718 30.2616 15.623 30.252C15.4357 30.2499 15.1909 30.2446 15.076 30.1339C14.9217 29.9849 14.7781 29.7242 14.7951 29.5252C14.811 29.3464 15.026 29.1517 15.1995 29.0336C15.3208 28.9516 15.523 28.9729 15.6879 28.9718C17.8396 28.9687 19.9903 28.9697 22.1421 28.9697C22.2197 28.9697 22.2974 28.9665 22.374 28.9718C22.8274 29.0048 23.087 29.2485 23.0796 29.6274C23.0711 30.0051 22.804 30.2499 22.3464 30.2542C21.2003 30.2627 20.0531 30.2574 18.907 30.2574L18.9081 30.2563Z" fill="white"/>
<path d="M16.7786 33.6648C16.354 33.6648 15.9304 33.6712 15.5058 33.6627C15.0482 33.6542 14.779 33.4243 14.7641 33.0487C14.7481 32.656 15.0152 32.391 15.492 32.3836C16.3529 32.3687 17.2149 32.3697 18.0758 32.3836C18.5557 32.391 18.826 32.6453 18.8186 33.0359C18.8111 33.4254 18.5323 33.6584 18.0513 33.6648C17.6267 33.6712 17.2032 33.6659 16.7786 33.6659V33.6648Z" fill="white"/>
</svg>