<svg width="27" height="22" viewBox="0 0 27 22" fill="none" xmlns="http://www.w3.org/2000/svg">
<path d="M26.9984 21.0435H0V1.67604H1.88221C1.88221 1.21252 1.89801 0.783695 1.87669 0.356442C1.86406 0.0963061 1.94459 0.0111708 2.20828 0.00486446C4.9716 -0.064505 7.54702 0.609482 9.95901 1.93539C11.1946 2.61489 12.2984 3.47019 13.2821 4.47998C13.3476 4.54699 13.3942 4.6337 13.5071 4.79136C13.605 4.64158 13.6461 4.55093 13.7116 4.48471C16.321 1.85025 19.494 0.40768 23.174 0.0553149C23.7259 0.00249954 24.2856 0.0277248 24.8415 0.00959415C25.0483 0.00249955 25.1288 0.0734456 25.1209 0.291802C25.1052 0.73955 25.1162 1.18809 25.1162 1.66027H27V21.0435H26.9984ZM13.9784 19.4638C17.0118 17.1541 20.4675 16.302 24.1277 16.1049V0.940564C23.5987 0.991015 23.0911 1.02018 22.5905 1.09113C19.2919 1.55701 16.4733 2.96253 14.1766 5.38731C14.0345 5.53708 13.9745 5.68764 13.9745 5.89654C13.98 10.3054 13.9784 14.7136 13.9784 19.1225V19.4646V19.4638ZM2.86833 0.915339V16.1073C6.55144 16.3004 9.99927 17.1651 13.0192 19.4599C13.0192 19.3345 13.0192 19.2699 13.0192 19.2044C13.0192 14.7482 13.0216 10.292 13.0105 5.83584C13.0105 5.68607 12.9181 5.50555 12.8123 5.39204C10.7233 3.1462 8.14232 1.78719 5.14135 1.21489C4.40157 1.07379 3.64521 1.01545 2.86833 0.914551V0.915339ZM26.0344 20.0724V2.65667H25.1154C25.1154 2.79856 25.1154 2.92154 25.1154 3.04372C25.1154 7.60398 25.113 12.1642 25.1209 16.7245C25.1209 16.9799 25.0586 17.054 24.7917 17.0729C23.6738 17.1517 22.5479 17.2038 21.4426 17.3772C19.1616 17.7343 17.0276 18.5076 15.1193 19.8382C15.0309 19.9005 14.9464 19.9683 14.8098 20.0724H26.0344ZM12.1704 20.0692C12.0473 19.973 11.9739 19.9005 11.8878 19.8508C11.2167 19.4614 10.5661 19.0294 9.86742 18.6984C7.45859 17.5593 4.89344 17.1052 2.2446 17.0713C1.96275 17.0674 1.87511 17.0035 1.8759 16.7048C1.88695 12.1429 1.883 7.58111 1.883 3.01928C1.883 2.89946 1.883 2.77886 1.883 2.65982H0.964791V20.0692H12.1704Z" fill="#0793BF"/>
<path d="M4.57845 3.52379C4.20343 3.51039 3.9571 3.69879 3.95315 4.00228C3.95 4.29316 4.17422 4.43269 4.53819 4.4989C5.25112 4.62976 5.97511 4.75352 6.65884 4.9837C8.32551 5.54496 9.8106 6.4578 11.2325 7.47706C11.512 7.67729 11.8026 7.64812 11.9707 7.41951C12.1413 7.18697 12.0805 6.90318 11.8033 6.70217C10.5512 5.79485 9.23662 4.99237 7.81154 4.3846C6.77648 3.94316 5.7122 3.60025 4.57766 3.52458L4.57845 3.52379ZM4.67162 6.21737C4.19948 6.20318 3.95631 6.38055 3.95315 6.69035C3.95079 6.98832 4.17895 7.12075 4.56661 7.19249C5.28902 7.32571 6.02012 7.45656 6.71253 7.69226C8.35868 8.25195 9.82639 9.15848 11.2333 10.1659C11.5168 10.3693 11.8002 10.3393 11.9707 10.1076C12.1413 9.87425 12.0813 9.59046 11.8041 9.38945C10.4809 8.43168 9.08977 7.59136 7.5731 6.97255C6.62015 6.58393 5.64194 6.28753 4.67162 6.21737ZM4.6732 8.90702C4.61003 8.90702 4.58082 8.90702 4.5524 8.90702C4.18527 8.90386 3.95789 9.08202 3.95394 9.37684C3.95 9.65905 4.15764 9.84981 4.50897 9.86952C5.40113 9.91918 6.24118 10.1793 7.06386 10.5017C8.56316 11.0898 9.92745 11.9191 11.2317 12.8524C11.5207 13.0597 11.7907 13.0329 11.9676 12.798C12.1413 12.567 12.0828 12.2809 11.8057 12.0807C10.5306 11.156 9.19004 10.3409 7.73495 9.72841C6.74253 9.31062 5.72247 8.98663 4.6732 8.90702ZM4.64951 11.6006C4.62109 11.599 4.59187 11.5967 4.56345 11.5959C4.1979 11.5856 3.96579 11.7606 3.95315 12.0547C3.94052 12.344 4.16001 12.4922 4.52635 12.5599C5.22981 12.6908 5.94432 12.8106 6.62015 13.0353C8.29867 13.5942 9.79165 14.5118 11.2231 15.5342C11.5207 15.747 11.8073 15.7186 11.9786 15.4719C12.1421 15.2362 12.0749 14.9627 11.7915 14.7577C10.6491 13.93 9.45295 13.1898 8.16603 12.6057C7.04491 12.0964 5.89143 11.6913 4.64951 11.5998V11.6006Z" fill="white"/>
<path d="M23.0444 4.02041C23.0381 4.2561 22.8589 4.46658 22.6133 4.48234C20.7193 4.60768 19.0739 5.41725 17.4791 6.35295C16.8767 6.70611 16.3185 7.13257 15.7208 7.49519C15.5811 7.58032 15.3411 7.60003 15.1919 7.53933C15.0711 7.49046 14.9645 7.28077 14.9495 7.13336C14.9376 7.01039 15.0347 6.82672 15.1413 6.74946C16.9975 5.40228 18.9587 4.25453 21.2159 3.70903C21.6328 3.60813 22.0662 3.5632 22.4949 3.5293C22.8234 3.50329 23.0523 3.73505 23.0444 4.02119V4.02041Z" fill="#0793BF"/>
<path d="M23.0453 6.69666C23.0453 6.94024 22.859 7.1586 22.5977 7.17594C20.6925 7.30128 19.0424 8.12267 17.4405 9.06547C16.8555 9.40995 16.3036 9.81198 15.7359 10.1864C15.473 10.3598 15.2109 10.3362 15.0412 10.1281C14.8683 9.91525 14.8904 9.61412 15.1288 9.44306C17.1263 8.00916 19.2233 6.77549 21.6826 6.30409C21.9637 6.25049 22.2534 6.22684 22.5392 6.22053C22.8337 6.21423 23.0445 6.43101 23.0445 6.69745L23.0453 6.69666Z" fill="#0793BF"/>
<path d="M23.0453 9.38944C23.0429 9.62357 22.8716 9.8364 22.6205 9.8569C20.2694 10.0461 18.3058 11.171 16.3928 12.4181C16.152 12.5749 15.9254 12.7539 15.6838 12.9084C15.4422 13.0621 15.1777 13.0069 15.0214 12.7893C14.8698 12.5773 14.9014 12.2951 15.1327 12.128C17.0394 10.75 19.0503 9.57627 21.3763 9.04969C21.7568 8.96377 22.1531 8.93539 22.544 8.91332C22.8369 8.89676 23.0477 9.12221 23.0453 9.38944Z" fill="#0793BF"/>
<path d="M23.0454 12.0775C23.0438 12.3132 22.8662 12.5261 22.6214 12.5442C20.5876 12.6947 18.8388 13.5934 17.1413 14.6221C16.6747 14.9051 16.2326 15.2267 15.7802 15.5326C15.4731 15.7407 15.1968 15.7226 15.0215 15.4782C14.8486 15.237 14.9204 14.9611 15.222 14.7459C17.0016 13.4759 18.8712 12.3771 21.0124 11.8276C21.5003 11.7023 22.0103 11.6503 22.514 11.6014C22.8267 11.5714 23.047 11.8 23.0446 12.0767L23.0454 12.0775Z" fill="#0793BF"/>
<path d="M4.57842 3.52457C5.71296 3.60025 6.77723 3.94236 7.81229 4.38381C9.23737 4.99237 10.5519 5.79406 11.8041 6.70138C12.0812 6.90239 12.1428 7.18618 11.9715 7.41872C11.8033 7.64811 11.5128 7.67649 11.2333 7.47627C9.81056 6.4578 8.32548 5.54417 6.65959 4.98291C5.97508 4.75273 5.25188 4.62896 4.53894 4.49811C4.17497 4.4311 3.94996 4.29237 3.95391 4.00149C3.95786 3.69799 4.20418 3.50959 4.57921 3.52299L4.57842 3.52457Z" fill="#0793BF"/>
<path d="M4.67235 6.21816C5.64267 6.28753 6.62089 6.58393 7.57384 6.97334C9.0905 7.59215 10.4816 8.43326 11.8049 9.39024C12.082 9.59125 12.1428 9.87504 11.9715 10.1084C11.8017 10.3409 11.5175 10.3701 11.2341 10.1667C9.82713 9.15927 8.3602 8.25274 6.71326 7.69305C6.02085 7.45735 5.28896 7.3265 4.56734 7.19328C4.17969 7.12233 3.95073 6.98911 3.95389 6.69114C3.95705 6.38055 4.20022 6.20319 4.67235 6.21816Z" fill="#0793BF"/>
<path d="M4.67393 8.90781C5.7232 8.98743 6.74325 9.31141 7.73568 9.72921C9.19156 10.3417 10.5314 11.1568 11.8064 12.0815C12.0836 12.2825 12.142 12.5686 11.9683 12.7988C11.7914 13.0337 11.5214 13.0605 11.2325 12.8532C9.92739 11.9199 8.56389 11.0906 7.06459 10.5025C6.24112 10.1801 5.40186 9.91997 4.5097 9.87031C4.15837 9.8506 3.94993 9.65984 3.95467 9.37763C3.95941 9.08281 4.18679 8.90466 4.55313 8.90781C4.58155 8.90781 4.61076 8.90781 4.67393 8.90781Z" fill="#0793BF"/>
<path d="M4.65024 11.6014C5.89215 11.692 7.04565 12.098 8.16676 12.6072C9.45368 13.1914 10.6498 13.9316 11.7922 14.7593C12.0757 14.9642 12.1428 15.2378 11.9794 15.4735C11.808 15.7202 11.5214 15.7486 11.2238 15.5357C9.79238 14.5133 8.2994 13.595 6.62088 13.0369C5.94505 12.8114 5.23054 12.6924 4.52707 12.5615C4.16074 12.4937 3.94125 12.3463 3.95389 12.0562C3.96652 11.7622 4.19864 11.5872 4.56418 11.5974C4.59261 11.5982 4.62182 11.6006 4.65024 11.6022V11.6014Z" fill="#0793BF"/>
</svg>
