<svg width="41" height="41" viewBox="0 0 41 41" fill="none" xmlns="http://www.w3.org/2000/svg">
<circle cx="20.5" cy="20.5" r="20.5" fill="white"/>
<path d="M33.9984 31.0435H7V11.676H8.88221C8.88221 11.2125 8.89801 10.7837 8.87669 10.3564C8.86406 10.0963 8.94459 10.0112 9.20828 10.0049C11.9716 9.93549 14.547 10.6095 16.959 11.9354C18.1946 12.6149 19.2984 13.4702 20.2821 14.48C20.3476 14.547 20.3942 14.6337 20.5071 14.7914C20.605 14.6416 20.6461 14.5509 20.7116 14.4847C23.321 11.8503 26.494 10.4077 30.174 10.0553C30.7259 10.0025 31.2856 10.0277 31.8415 10.0096C32.0483 10.0025 32.1288 10.0734 32.1209 10.2918C32.1052 10.7396 32.1162 11.1881 32.1162 11.6603H34V31.0435H33.9984ZM20.9784 29.4638C24.0118 27.1541 27.4675 26.302 31.1277 26.1049V10.9406C30.5987 10.991 30.0911 11.0202 29.5905 11.0911C26.2919 11.557 23.4733 12.9625 21.1766 15.3873C21.0345 15.5371 20.9745 15.6876 20.9745 15.8965C20.98 20.3054 20.9784 24.7136 20.9784 29.1225V29.4646V29.4638ZM9.86833 10.9153V26.1073C13.5514 26.3004 16.9993 27.1651 20.0192 29.4599C20.0192 29.3345 20.0192 29.2699 20.0192 29.2044C20.0192 24.7482 20.0216 20.292 20.0105 15.8358C20.0105 15.6861 19.9181 15.5055 19.8123 15.392C17.7233 13.1462 15.1423 11.7872 12.1414 11.2149C11.4016 11.0738 10.6452 11.0155 9.86833 10.9146V10.9153ZM33.0344 30.0724V12.6567H32.1154C32.1154 12.7986 32.1154 12.9215 32.1154 13.0437C32.1154 17.604 32.113 22.1642 32.1209 26.7245C32.1209 26.9799 32.0586 27.054 31.7917 27.0729C30.6738 27.1517 29.5479 27.2038 28.4426 27.3772C26.1616 27.7343 24.0276 28.5076 22.1193 29.8382C22.0309 29.9005 21.9464 29.9683 21.8098 30.0724H33.0344ZM19.1704 30.0692C19.0473 29.973 18.9739 29.9005 18.8878 29.8508C18.2167 29.4614 17.5661 29.0294 16.8674 28.6984C14.4586 27.5593 11.8934 27.1052 9.2446 27.0713C8.96275 27.0674 8.87511 27.0035 8.8759 26.7048C8.88695 22.1429 8.883 17.5811 8.883 13.0193C8.883 12.8995 8.883 12.7789 8.883 12.6598H7.96479V30.0692H19.1704Z" fill="#0793BF"/>
<path d="M11.5785 13.5238C11.2034 13.5104 10.9571 13.6988 10.9532 14.0023C10.95 14.2932 11.1742 14.4327 11.5382 14.4989C12.2511 14.6298 12.9751 14.7535 13.6588 14.9837C15.3255 15.545 16.8106 16.4578 18.2325 17.4771C18.512 17.6773 18.8026 17.6481 18.9707 17.4195C19.1413 17.187 19.0805 16.9032 18.8033 16.7022C17.5512 15.7948 16.2366 14.9924 14.8115 14.3846C13.7765 13.9432 12.7122 13.6003 11.5777 13.5246L11.5785 13.5238ZM11.6716 16.2174C11.1995 16.2032 10.9563 16.3805 10.9532 16.6903C10.9508 16.9883 11.179 17.1208 11.5666 17.1925C12.289 17.3257 13.0201 17.4566 13.7125 17.6923C15.3587 18.2519 16.8264 19.1585 18.2333 20.1659C18.5168 20.3693 18.8002 20.3393 18.9707 20.1076C19.1413 19.8742 19.0813 19.5905 18.8041 19.3894C17.4809 18.4317 16.0898 17.5914 14.5731 16.9726C13.6202 16.5839 12.6419 16.2875 11.6716 16.2174ZM11.6732 18.907C11.61 18.907 11.5808 18.907 11.5524 18.907C11.1853 18.9039 10.9579 19.082 10.9539 19.3768C10.95 19.659 11.1576 19.8498 11.509 19.8695C12.4011 19.9192 13.2412 20.1793 14.0639 20.5017C15.5632 21.0898 16.9275 21.9191 18.2317 22.8524C18.5207 23.0597 18.7907 23.0329 18.9676 22.798C19.1413 22.567 19.0828 22.2809 18.8057 22.0807C17.5306 21.156 16.19 20.3409 14.735 19.7284C13.7425 19.3106 12.7225 18.9866 11.6732 18.907ZM11.6495 21.6006C11.6211 21.599 11.5919 21.5967 11.5635 21.5959C11.1979 21.5856 10.9658 21.7606 10.9532 22.0547C10.9405 22.344 11.16 22.4922 11.5263 22.5599C12.2298 22.6908 12.9443 22.8106 13.6201 23.0353C15.2987 23.5942 16.7917 24.5118 18.2231 25.5342C18.5207 25.747 18.8073 25.7186 18.9786 25.4719C19.1421 25.2362 19.0749 24.9627 18.7915 24.7577C17.6491 23.93 16.4529 23.1898 15.166 22.6057C14.0449 22.0964 12.8914 21.6913 11.6495 21.5998V21.6006Z" fill="white"/>
<path d="M30.0444 14.0204C30.0381 14.2561 29.8589 14.4666 29.6133 14.4823C27.7193 14.6077 26.0739 15.4173 24.4791 16.353C23.8767 16.7061 23.3185 17.1326 22.7208 17.4952C22.5811 17.5803 22.3411 17.6 22.1919 17.5393C22.0711 17.4905 21.9645 17.2808 21.9495 17.1334C21.9376 17.0104 22.0347 16.8267 22.1413 16.7495C23.9975 15.4023 25.9587 14.2545 28.2159 13.709C28.6328 13.6081 29.0662 13.5632 29.4949 13.5293C29.8234 13.5033 30.0523 13.735 30.0444 14.0212V14.0204Z" fill="#0793BF"/>
<path d="M30.0453 16.6967C30.0453 16.9402 29.859 17.1586 29.5977 17.1759C27.6925 17.3013 26.0424 18.1227 24.4405 19.0655C23.8555 19.41 23.3036 19.812 22.7359 20.1864C22.473 20.3598 22.2109 20.3362 22.0412 20.1281C21.8683 19.9152 21.8904 19.6141 22.1288 19.4431C24.1263 18.0092 26.2233 16.7755 28.6826 16.3041C28.9637 16.2505 29.2534 16.2268 29.5392 16.2205C29.8337 16.2142 30.0445 16.431 30.0445 16.6974L30.0453 16.6967Z" fill="#0793BF"/>
<path d="M30.0453 19.3894C30.0429 19.6236 29.8716 19.8364 29.6205 19.8569C27.2694 20.0461 25.3058 21.171 23.3928 22.4181C23.152 22.5749 22.9254 22.7539 22.6838 22.9084C22.4422 23.0621 22.1777 23.0069 22.0214 22.7893C21.8698 22.5773 21.9014 22.2951 22.1327 22.128C24.0394 20.75 26.0503 19.5763 28.3763 19.0497C28.7568 18.9638 29.1531 18.9354 29.544 18.9133C29.8369 18.8968 30.0477 19.1222 30.0453 19.3894Z" fill="#0793BF"/>
<path d="M30.0454 22.0775C30.0438 22.3132 29.8662 22.5261 29.6214 22.5442C27.5876 22.6947 25.8388 23.5934 24.1413 24.6221C23.6747 24.9051 23.2326 25.2267 22.7802 25.5326C22.4731 25.7407 22.1968 25.7226 22.0215 25.4782C21.8486 25.237 21.9204 24.9611 22.222 24.7459C24.0016 23.4759 25.8712 22.3771 28.0124 21.8276C28.5003 21.7023 29.0103 21.6503 29.514 21.6014C29.8267 21.5714 30.047 21.8 30.0446 22.0767L30.0454 22.0775Z" fill="#0793BF"/>
<path d="M11.5784 13.5246C12.713 13.6002 13.7772 13.9424 14.8123 14.3838C16.2374 14.9924 17.5519 15.7941 18.8041 16.7014C19.0812 16.9024 19.1428 17.1862 18.9715 17.4187C18.8033 17.6481 18.5128 17.6765 18.2333 17.4763C16.8106 16.4578 15.3255 15.5442 13.6596 14.9829C12.9751 14.7527 12.2519 14.629 11.5389 14.4981C11.175 14.4311 10.95 14.2924 10.9539 14.0015C10.9579 13.698 11.2042 13.5096 11.5792 13.523L11.5784 13.5246Z" fill="#0793BF"/>
<path d="M11.6724 16.2182C12.6427 16.2875 13.6209 16.5839 14.5738 16.9733C16.0905 17.5922 17.4816 18.4333 18.8049 19.3902C19.082 19.5913 19.1428 19.875 18.9715 20.1084C18.8017 20.3409 18.5175 20.3701 18.2341 20.1667C16.8271 19.1593 15.3602 18.2527 13.7133 17.6931C13.0208 17.4574 12.289 17.3265 11.5673 17.1933C11.1797 17.1223 10.9507 16.9891 10.9539 16.6911C10.957 16.3806 11.2002 16.2032 11.6724 16.2182Z" fill="#0793BF"/>
<path d="M11.6739 18.9078C12.7232 18.9874 13.7433 19.3114 14.7357 19.7292C16.1916 20.3417 17.5314 21.1568 18.8064 22.0815C19.0836 22.2825 19.142 22.5686 18.9683 22.7988C18.7914 23.0337 18.5214 23.0605 18.2325 22.8532C16.9274 21.9199 15.5639 21.0906 14.0646 20.5025C13.2411 20.1801 12.4019 19.92 11.5097 19.8703C11.1584 19.8506 10.9499 19.6598 10.9547 19.3776C10.9594 19.0828 11.1868 18.9047 11.5531 18.9078C11.5815 18.9078 11.6108 18.9078 11.6739 18.9078Z" fill="#0793BF"/>
<path d="M11.6502 21.6014C12.8922 21.692 14.0456 22.098 15.1668 22.6072C16.4537 23.1914 17.6498 23.9316 18.7922 24.7593C19.0757 24.9642 19.1428 25.2378 18.9794 25.4735C18.808 25.7202 18.5214 25.7486 18.2238 25.5357C16.7924 24.5133 15.2994 23.595 13.6209 23.0369C12.9451 22.8114 12.2305 22.6924 11.5271 22.5615C11.1607 22.4937 10.9413 22.3463 10.9539 22.0562C10.9665 21.7622 11.1986 21.5872 11.5642 21.5974C11.5926 21.5982 11.6218 21.6006 11.6502 21.6022V21.6014Z" fill="#0793BF"/>
</svg>
