<svg width="18" height="19" viewBox="0 0 18 19" fill="none" xmlns="http://www.w3.org/2000/svg">
    <g clip-path="url(#clip0_6035_43447)">
        <path
            d="M9 18.5C13.9706 18.5 18 14.4706 18 9.5C18 4.52944 13.9706 0.5 9 0.5C4.02944 0.5 0 4.52944 0 9.5C0 14.4706 4.02944 18.5 9 18.5Z"
            fill="#F0F0F0" />
        <path
            d="M9.00003 0.5C5.43188 0.5 2.34882 2.5765 0.893066 5.58697H17.107C15.6512 2.5765 12.5681 0.5 9.00003 0.5Z"
            fill="#338AF3" />
        <path
            d="M9.00003 18.5001C12.5681 18.5001 15.6512 16.4236 17.107 13.4131H0.893066C2.34882 16.4236 5.43188 18.5001 9.00003 18.5001Z"
            fill="#338AF3" />
        <path
            d="M11.69 9.50008L10.5908 10.0171L11.1761 11.0816L9.98256 10.8533L9.83132 12.059L8.99998 11.1722L8.1686 12.059L8.0174 10.8533L6.82384 11.0816L7.40912 10.0171L6.31 9.50008L7.40916 8.98304L6.82384 7.91858L8.01736 8.14688L8.16864 6.94116L8.99998 7.82794L9.83135 6.94116L9.98256 8.14688L11.1762 7.91858L10.5908 8.98307L11.69 9.50008Z"
            fill="#FFDA44" />
    </g>
    <defs>
        <clipPath id="clip0_6035_43447">
            <rect width="18" height="18" fill="white" transform="translate(0 0.5)" />
        </clipPath>
    </defs>
</svg>