<?xml version="1.0" standalone="no"?>
<!DOCTYPE svg PUBLIC "-//W3C//DTD SVG 20010904//EN"
 "http://www.w3.org/TR/2001/REC-SVG-20010904/DTD/svg10.dtd">
<svg version="1.0" xmlns="http://www.w3.org/2000/svg"
 width="578.000000pt" height="288.000000pt" viewBox="0 0 578.000000 288.000000"
 preserveAspectRatio="xMidYMid meet">

<g transform="translate(0.000000,288.000000) scale(0.100000,-0.100000)"
fill="#000000" stroke="none">
<path d="M2351 2476 c-8 -9 -11 -85 -9 -257 l3 -244 180 -5 180 -5 0 -25 c0
-24 -3 -25 -80 -32 -44 -4 -91 -10 -105 -13 -24 -6 -24 -7 -5 -18 23 -14 452
-17 500 -4 47 13 11 26 -94 34 l-91 6 0 28 c0 24 4 29 25 29 23 0 25 4 25 45
l0 45 -240 0 -240 0 0 195 0 195 370 0 370 0 0 -50 c0 -47 2 -50 25 -50 26 0
26 1 23 68 l-3 67 -411 3 c-341 2 -413 0 -423 -12z m419 -452 c0 -9 -5 -12
-12 -8 -8 5 -9 1 -4 -12 6 -15 5 -16 -5 -7 -10 10 -9 15 1 28 16 19 20 19 20
-1z m20 -14 c0 -11 -4 -20 -9 -20 -5 0 -7 9 -4 20 3 11 7 20 9 20 2 0 4 -9 4
-20z"/>
<path d="M2915 2327 c-3 -7 -4 -91 -3 -187 l3 -175 73 -3 c59 -2 72 0 72 13 0
11 -11 15 -40 15 l-40 0 0 155 0 155 215 0 215 0 0 -155 0 -155 -35 0 c-25 0
-35 -4 -35 -15 0 -13 12 -15 68 -13 l67 3 0 185 0 185 -278 3 c-220 2 -279 0
-282 -11z m553 -180 c2 -12 -3 -17 -17 -17 -12 0 -21 6 -21 13 0 31 32 34 38
4z"/>
<path d="M3093 2233 c-10 -3 -13 -51 -13 -189 l0 -184 115 0 115 0 -2 188 -3
187 -100 1 c-55 1 -106 0 -112 -3z m120 -30 c-7 -2 -21 -2 -30 0 -10 3 -4 5
12 5 17 0 24 -2 18 -5z m77 -148 l0 -125 -95 0 -95 0 0 125 0 125 95 0 95 0 0
-125z m-80 -165 c0 -11 -4 -20 -9 -20 -14 0 -23 18 -16 30 10 17 25 11 25 -10z"/>
<path d="M4662 1417 c-42 -34 -48 -43 -33 -45 17 -3 131 71 131 84 0 2 -10 4
-22 4 -13 0 -47 -19 -76 -43z"/>
<path d="M480 1035 c0 -278 0 -285 20 -285 20 0 20 7 20 285 0 278 0 285 -20
285 -20 0 -20 -7 -20 -285z"/>
<path d="M720 1035 c0 -278 0 -285 20 -285 19 0 20 7 20 246 0 204 2 245 13
235 8 -6 97 -116 198 -246 115 -147 191 -235 202 -235 16 0 17 20 17 285 0
277 -1 285 -20 285 -19 0 -20 -8 -22 -247 l-3 -247 -193 247 c-134 172 -199
247 -213 247 -18 0 -19 -9 -19 -285z"/>
<path d="M1514 1299 c-65 -25 -120 -78 -152 -147 -21 -47 -24 -65 -20 -131 7
-122 60 -200 168 -250 89 -41 209 -32 298 21 l32 20 0 109 c0 102 -1 109 -20
109 -18 0 -20 -8 -22 -102 l-3 -103 -40 -20 c-50 -25 -171 -25 -227 -1 -83 36
-148 134 -148 225 0 99 62 201 142 234 84 35 195 28 262 -18 28 -19 37 -21 45
-11 14 17 -9 38 -69 65 -60 28 -175 28 -246 0z"/>
<path d="M2030 1300 c0 -20 5 -20 182 -18 165 3 183 5 186 21 3 16 -11 17
-182 17 -180 0 -186 -1 -186 -20z"/>
<path d="M2580 1035 c0 -277 1 -285 20 -285 19 0 20 8 22 245 l3 245 191 -242
c104 -134 198 -244 207 -246 16 -3 17 19 17 282 0 278 -1 286 -20 286 -19 0
-20 -8 -22 -244 l-3 -245 -190 244 c-117 151 -197 245 -207 245 -17 0 -18 -20
-18 -285z"/>
<path d="M3250 1035 c0 -278 0 -285 20 -285 20 0 20 7 20 285 0 278 0 285 -20
285 -20 0 -20 -7 -20 -285z"/>
<path d="M3490 1300 c0 -19 7 -20 185 -20 178 0 185 1 185 20 0 19 -7 20 -185
20 -178 0 -185 -1 -185 -20z"/>
<path d="M4040 1301 c0 -20 5 -21 135 -21 148 0 182 -8 225 -54 34 -37 40
-137 11 -183 -36 -57 -69 -67 -228 -71 l-143 -4 0 -109 c0 -102 1 -109 20
-109 19 0 20 7 20 95 l0 96 112 -3 112 -3 65 -92 c51 -71 71 -93 89 -93 22 0
21 4 -24 68 -26 37 -58 81 -71 99 -24 31 -24 31 -3 38 30 10 79 53 96 87 21
41 20 130 -3 176 -11 23 -36 48 -67 67 -48 29 -53 30 -198 33 -145 4 -148 3
-148 -17z"/>
<path d="M4630 1035 c0 -278 0 -285 20 -285 20 0 20 7 20 285 0 278 0 285 -20
285 -20 0 -20 -7 -20 -285z"/>
<path d="M5018 1273 c-12 -27 -68 -149 -125 -273 -58 -124 -107 -231 -110
-238 -4 -10 1 -13 18 -10 20 3 39 38 139 255 63 139 117 254 120 257 3 2 57
-111 121 -252 98 -216 120 -258 139 -260 28 -5 37 -28 -113 300 -108 237 -125
268 -145 268 -18 0 -28 -10 -44 -47z"/>
<path d="M2030 1040 c0 -19 7 -20 185 -20 178 0 185 1 185 20 0 19 -7 20 -185
20 -178 0 -185 -1 -185 -20z"/>
<path d="M3490 1040 c0 -19 7 -20 185 -20 178 0 185 1 185 20 0 19 -7 20 -185
20 -178 0 -185 -1 -185 -20z"/>
<path d="M2030 765 c0 -13 27 -15 185 -15 158 0 185 2 185 15 0 13 -27 15
-185 15 -158 0 -185 -2 -185 -15z"/>
<path d="M3490 765 c0 -13 27 -15 185 -15 158 0 185 2 185 15 0 13 -27 15
-185 15 -158 0 -185 -2 -185 -15z"/>
<path d="M1710 650 c0 -6 32 -10 75 -10 68 0 77 -2 107 -29 29 -26 33 -35 33
-80 0 -41 -5 -55 -26 -77 -23 -22 -38 -27 -98 -32 l-71 -5 0 57 c0 31 -4 56
-10 56 -6 0 -10 -28 -10 -65 l0 -65 53 0 c70 0 119 15 150 45 60 61 35 174
-47 205 -35 13 -156 13 -156 0z"/>
<path d="M2020 650 c0 -6 33 -10 80 -10 47 0 80 4 80 10 0 6 -33 10 -80 10
-47 0 -80 -4 -80 -10z"/>
<path d="M2370 647 c-13 -7 -29 -25 -34 -39 -13 -37 12 -64 77 -83 61 -18 77
-31 77 -61 0 -42 -76 -59 -132 -30 -16 8 -28 10 -28 5 0 -18 72 -41 108 -35
99 16 97 102 -3 131 -83 25 -104 54 -65 90 16 14 30 17 77 12 54 -5 56 -5 33
8 -31 18 -77 19 -110 2z"/>
<path d="M2570 530 c0 -80 4 -130 10 -130 6 0 10 50 10 130 0 80 -4 130 -10
130 -6 0 -10 -50 -10 -130z"/>
<path d="M2685 635 c-14 -13 -25 -33 -25 -43 0 -27 38 -57 90 -71 56 -16 70
-27 70 -57 0 -42 -76 -59 -132 -30 -16 8 -28 10 -28 5 0 -18 72 -41 108 -35
99 16 97 102 -3 131 -83 25 -104 54 -65 90 16 14 30 17 77 12 54 -5 56 -5 33
8 -41 23 -97 19 -125 -10z"/>
<path d="M2860 650 c0 -5 20 -10 45 -10 l45 0 0 -120 c0 -73 4 -120 10 -120 6
0 10 47 10 120 l0 120 45 0 c25 0 45 5 45 10 0 6 -40 10 -100 10 -60 0 -100
-4 -100 -10z"/>
<path d="M3110 650 c0 -6 33 -10 80 -10 47 0 80 4 80 10 0 6 -33 10 -80 10
-47 0 -80 -4 -80 -10z"/>
<path d="M3350 530 c0 -158 18 -177 22 -24 l3 107 48 -87 c27 -47 53 -86 57
-86 5 0 31 39 57 86 l48 86 3 -106 c4 -153 22 -134 22 24 0 72 -3 130 -7 130
-5 -1 -32 -43 -62 -95 -30 -52 -58 -95 -63 -95 -4 0 -30 43 -59 95 -28 52 -55
95 -60 95 -5 0 -9 -58 -9 -130z"/>
<path d="M3716 534 c-31 -70 -54 -129 -51 -132 3 -3 6 -3 8 -1 4 7 44 91 77
164 l32 70 32 -65 c17 -36 42 -89 54 -118 13 -29 27 -50 32 -47 5 3 -16 57
-46 119 -30 63 -54 119 -54 125 0 6 -6 11 -13 11 -8 0 -39 -56 -71 -126z"/>
<path d="M3960 635 c-27 -29 -26 -69 3 -87 12 -8 44 -20 70 -28 54 -14 74 -39
57 -70 -17 -32 -65 -37 -139 -14 -15 4 -22 3 -18 -3 3 -5 24 -15 46 -23 55
-18 113 -1 130 37 17 38 -10 72 -74 91 -61 17 -75 28 -75 56 0 33 19 46 70 46
25 0 51 -5 58 -12 9 -9 12 -9 12 0 0 37 -107 42 -140 7z"/>
<path d="M2012 534 c12 -11 137 -16 155 -5 14 8 -3 10 -71 11 -49 0 -87 -2
-84 -6z"/>
<path d="M3115 530 c8 -12 109 -11 140 1 12 5 -12 8 -63 8 -56 1 -81 -2 -77
-9z"/>
<path d="M2015 410 c3 -5 39 -10 80 -10 41 0 77 5 80 10 4 6 -25 10 -80 10
-55 0 -84 -4 -80 -10z"/>
<path d="M3110 410 c0 -6 33 -10 80 -10 47 0 80 4 80 10 0 6 -33 10 -80 10
-47 0 -80 -4 -80 -10z"/>
</g>
</svg>
