<svg width="24" height="24" viewBox="0 0 24 24" fill="none" xmlns="http://www.w3.org/2000/svg">
    <g clip-path="url(#clip0_6008_42589)">
        <path
            d="M16.1745 0.746391C14.8745 0.264047 13.4684 0 12.0006 0C10.5327 0 9.12667 0.264047 7.82669 0.746391L6.7832 12L7.82669 23.2536C9.12667 23.736 10.5327 24 12.0006 24C13.4684 24 14.8745 23.736 16.1745 23.2536L17.218 12L16.1745 0.746391Z"
            fill="#FFDA44" />
        <path
            d="M23.9999 11.9997C23.9999 6.84013 20.7434 2.44156 16.1738 0.746094V23.2534C20.7434 21.5578 23.9999 17.1593 23.9999 11.9997Z"
            fill="#D80027" />
        <path
            d="M0 11.9997C0 17.1593 3.2565 21.5577 7.82611 23.2533V0.746094C3.2565 2.44156 0 6.84012 0 11.9997Z"
            fill="black" />
    </g>
    <defs>
        <clipPath id="clip0_6008_42589">
            <rect width="24" height="24" fill="white" />
        </clipPath>
    </defs>
</svg>