<svg width="24" height="24" viewBox="0 0 24 24" fill="none" xmlns="http://www.w3.org/2000/svg">
    <g clip-path="url(#clip0_6008_42725)">
        <path
            d="M12 24C18.6274 24 24 18.6274 24 12C24 5.37258 18.6274 0 12 0C5.37258 0 0 5.37258 0 12C0 18.6274 5.37258 24 12 24Z"
            fill="#6DA544" />
        <path d="M12.0009 4.69531L21.914 11.9997L12.0009 19.304L2.08789 11.9997L12.0009 4.69531Z"
            fill="#FFDA44" />
        <path
            d="M12.0001 16.174C14.3052 16.174 16.174 14.3052 16.174 12.0001C16.174 9.69489 14.3052 7.82617 12.0001 7.82617C9.69489 7.82617 7.82617 9.69489 7.82617 12.0001C7.82617 14.3052 9.69489 16.174 12.0001 16.174Z"
            fill="#F0F0F0" />
        <path
            d="M9.91373 11.7393C9.18792 11.7393 8.48747 11.8496 7.82812 12.0545C7.85733 14.3345 9.71377 16.1741 12.0007 16.1741C13.4148 16.1741 14.6638 15.4701 15.4188 14.3943C14.127 12.7773 12.1395 11.7393 9.91373 11.7393Z"
            fill="#0052B4" />
        <path
            d="M16.0981 12.7997C16.1484 12.5408 16.1755 12.2737 16.1755 12.0001C16.1755 9.69484 14.3068 7.82617 12.0016 7.82617C10.2816 7.82617 8.80502 8.86684 8.16602 10.3527C8.73086 10.2356 9.31567 10.174 9.91469 10.174C12.3389 10.174 14.532 11.1817 16.0981 12.7997Z"
            fill="#0052B4" />
    </g>
    <defs>
        <clipPath id="clip0_6008_42725">
            <rect width="24" height="24" fill="white" />
        </clipPath>
    </defs>
</svg>